<?xml version="1.0" encoding="UTF-8"?>
<svg version="1.1" xmlns="http://www.w3.org/2000/svg" width="762" height="263">
<path d="M0 0 C251.46 0 502.92 0 762 0 C762 86.79 762 173.58 762 263 C510.54 263 259.08 263 0 263 C0 176.21 0 89.42 0 0 Z " fill="#FEFEFE" transform="translate(0,0)"/>
<path d="M0 0 C-0.66 1.32 -1.32 2.64 -2 4 C-5.73379823 3.39885181 -8.6845967 2.30630933 -12.0625 0.625 C-17.88628728 -2.10169878 -23.72646254 -3.66979435 -30 -5 C-30.74958984 -5.17200928 -31.49917969 -5.34401855 -32.27148438 -5.52124023 C-48.85014881 -8.43022028 -67.95429968 -6.70438289 -84 -2 C-84.70882324 -1.80696289 -85.41764648 -1.61392578 -86.14794922 -1.41503906 C-104.32635358 3.58864377 -121.33311826 12.64808498 -137 23 C-137.63800537 23.41773682 -138.27601074 23.83547363 -138.93334961 24.26586914 C-157.28055165 36.45012174 -175.43074329 52.56272868 -182.6640625 73.96484375 C-184.29872733 83.86787139 -183.68363041 92.58568682 -178 101 C-177.319375 102.051875 -176.63875 103.10375 -175.9375 104.1875 C-163.42536344 117.89678543 -140.49264026 121.87133539 -123 123 C-119.1851481 123.12460806 -115.37525731 123.14075964 -111.55859375 123.1328125 C-109.98695213 123.13424759 -109.98695213 123.13424759 -108.38356018 123.13571167 C-106.18108052 123.1363871 -103.97859879 123.13457769 -101.77612305 123.13037109 C-98.46984181 123.12505203 -95.16369877 123.13031839 -91.85742188 123.13671875 C-72.76573669 123.14495136 -54.02473111 122.1778949 -35.0625 120 C-6.8587027 116.81156949 -6.8587027 116.81156949 5.25 116.9375 C6.10207031 116.94201172 6.95414063 116.94652344 7.83203125 116.95117188 C9.88805281 116.96272256 11.9440371 116.9806447 14 117 C13.96592041 116.42386963 13.93184082 115.84773926 13.89672852 115.25415039 C13.65829403 107.92500772 15.03249969 101.48687428 16.9375 94.4375 C17.24598877 93.27307373 17.55447754 92.10864746 17.87231445 90.90893555 C21.96220472 75.90997365 26.74991658 60.79643414 34 47 C35.65 47 37.3 47 39 47 C37.41542029 52.78232597 35.49907094 58.35489245 33.3125 63.9375 C30.44319904 71.41840883 28.02097916 79.02425569 25.6875 86.6875 C25.33792236 87.80310303 24.98834473 88.91870605 24.62817383 90.06811523 C20.39403689 104.08582419 20.39403689 104.08582419 23 118 C24.03125 117.505 25.0625 117.01 26.125 116.5 C33.10829294 113.88593313 42.19772347 113.50171752 49.1875 116.3125 C53.52173913 118.91304348 53.52173913 118.91304348 55 121 C55 121.99 55 122.98 55 124 C53.35 124.33 51.7 124.66 50 125 C49.505 124.236875 49.01 123.47375 48.5 122.6875 C45.33232828 119.2822529 42.53119353 117.92271577 38 117 C34.01421425 116.88057571 30.75855655 117.58204444 27.23242188 119.52490234 C23.40807915 121.27011977 20.59906779 121.41326886 16.40625 121.4765625 C15.69650024 121.49214203 14.98675049 121.50772156 14.25549316 121.52377319 C12.00367286 121.57097241 9.75215513 121.59893004 7.5 121.625 C5.248063 121.66168751 2.99628981 121.7024944 0.74450684 121.74765015 C-1.29844882 121.78698681 -3.34161411 121.81495286 -5.38476562 121.84228516 C-8.68798142 121.98638817 -11.7516966 122.41730494 -15 123 C-16.80118308 123.16868039 -18.60497405 123.31123596 -20.41015625 123.4296875 C-21.46187012 123.5013916 -22.51358398 123.5730957 -23.59716797 123.64697266 C-25.31250732 123.75984619 -25.31250732 123.75984619 -27.0625 123.875 C-35.20634721 124.41763774 -43.3332133 125.00970438 -51.45703125 125.796875 C-69.00389635 127.46765483 -86.43243721 128.31574834 -104.0625 128.375 C-105.01429138 128.38267395 -105.96608276 128.3903479 -106.94671631 128.39825439 C-132.62833713 128.56454507 -162.29653538 126.03667217 -181.8671875 107.44140625 C-188.39538022 99.96865818 -190.40624279 91.89794071 -190.265625 82.20703125 C-189.03839163 67.38999309 -177.95721616 54.25681381 -168 44 C-167.38511719 43.31164062 -166.77023438 42.62328125 -166.13671875 41.9140625 C-129.63844984 2.56322347 -50.42882439 -32.09107006 0 0 Z " fill="#181818" transform="translate(219,25)"/>
<path d="M0 0 C11.85323764 6.34994874 15.16910497 19.99569701 19 32 C19.34242614 33.33102713 19.67824613 34.66382511 20 36 C14.75200982 33.66755992 13.05980366 30.08377074 11 25 C9.69764977 21.58694422 8.41930141 18.16524402 7.19360352 14.72387695 C5.80168014 10.87172319 4.2441726 7.42952192 2 4 C-0.38564077 4.57584432 -2.66682784 5.22227595 -5 6 C-6.08434475 8.26844934 -6.08434475 8.26844934 -7 11 C-7.93292074 12.9397091 -8.87084583 14.87701558 -9.8125 16.8125 C-12.94593449 23.60287257 -15.30395687 30.51744605 -17.34814453 37.70800781 C-17.79152494 39.26697983 -18.24335038 40.82356937 -18.70263672 42.37792969 C-24.15292424 60.93876189 -27.05175075 79.91936423 -30 99 C-30.10304443 99.66559937 -30.20608887 100.33119873 -30.31225586 101.01696777 C-30.87849253 104.67743007 -31.43995617 108.33858136 -32 112 C-28.37 112 -24.74 112 -21 112 C-23.0625 114.5 -23.0625 114.5 -26 117 C-29.8125 117.3125 -29.8125 117.3125 -33 117 C-32.97679687 117.63421875 -32.95359375 118.2684375 -32.9296875 118.921875 C-32.80342123 125.45164509 -33.19462514 131.82727893 -33.875 138.3125 C-33.96362305 139.16489258 -34.05224609 140.01728516 -34.14355469 140.89550781 C-34.52113584 144.49776445 -34.90296965 148.09953882 -35.29101562 151.70068359 C-36.99488586 167.82659834 -37.23326723 183.79151599 -37 200 C-36.56042969 199.50886719 -36.12085938 199.01773438 -35.66796875 198.51171875 C-34 197 -34 197 -31.3125 196.8125 C-30.549375 196.874375 -29.78625 196.93625 -29 197 C-29 197.66 -29 198.32 -29 199 C-29.99 199 -30.98 199 -32 199 C-33.83402304 204.96668828 -35.53889252 210.93078433 -37 217 C-39.86724686 216.42655063 -40.8614515 216.1385485 -43 214 C-43.26069641 212.12805176 -43.26069641 212.12805176 -43.2746582 209.81445312 C-43.2887674 208.5059993 -43.2887674 208.5059993 -43.30316162 207.17111206 C-43.3023761 206.21745758 -43.30159058 205.2638031 -43.30078125 204.28125 C-43.30619934 203.28771515 -43.31161743 202.2941803 -43.31719971 201.27053833 C-43.32875946 198.01356076 -43.32227314 194.75697953 -43.3125 191.5 C-43.31200653 190.39597839 -43.31151306 189.29195679 -43.31100464 188.15447998 C-43.28620422 170.07119976 -42.38522592 152.258686 -40.35986328 134.29394531 C-39.91948987 130.26306466 -39.57907191 126.22727542 -39.26147461 122.18505859 C-39 120 -39 120 -38 117 C-41.63 117 -45.26 117 -49 117 C-46.9375 114.5 -46.9375 114.5 -44 112 C-40.1875 111.6875 -40.1875 111.6875 -37 112 C-37.01450195 111.39196533 -37.02900391 110.78393066 -37.04394531 110.1574707 C-37.12604098 104.04662102 -36.67252257 98.2234002 -35.75 92.1875 C-35.61432617 91.28080566 -35.47865234 90.37411133 -35.33886719 89.43994141 C-23.93843606 14.95111998 -23.93843606 14.95111998 -8 1.28515625 C-5.07905542 -0.59177884 -3.42110213 -0.53664347 0 0 Z " fill="#101010" transform="translate(502,17)"/>
<path d="M0 0 C0.78375 0.53625 1.5675 1.0725 2.375 1.625 C3.365 2.285 4.355 2.945 5.375 3.625 C5.705 2.305 6.035 0.985 6.375 -0.375 C7.695 -0.705 9.015 -1.035 10.375 -1.375 C10.375 5.225 10.375 11.825 10.375 18.625 C7.425625 18.686875 4.47625 18.74875 1.4375 18.8125 C0.07250366 18.85346802 0.07250366 18.85346802 -1.32006836 18.89526367 C-8.9945009 18.97203276 -17.62547543 17.34869529 -23.4375 11.9375 C-24.625 9.625 -24.625 9.625 -24.75 6.125 C-23.625 2.625 -23.625 2.625 -20.875 0.1875 C-14.50355674 -2.87290339 -6.4613427 -2.45085413 0 0 Z " fill="#111111" transform="translate(507.625,131.375)"/>
<path d="M0 0 C1.65 0 3.3 0 5 0 C4.34105967 4.11454603 3.00062843 7.60814534 1.375 11.4375 C-4.94436141 26.80671517 -9.5332244 42.76429316 -13 59 C-8.71 59.33 -4.42 59.66 0 60 C-0.33 60.66 -0.66 61.32 -1 62 C-5.29 61.67 -9.58 61.34 -14 61 C-14.12375 62.258125 -14.2475 63.51625 -14.375 64.8125 C-14.97361805 70.26079179 -15.96426426 75.62020754 -17 81 C-19.97 81.495 -19.97 81.495 -23 82 C-26.45402403 77.03484045 -27.69606548 73.32794346 -27.46484375 67.2421875 C-27 65 -27 65 -24.625 62.4375 C-23.09651225 61.60047099 -21.5586898 60.7793449 -20 60 C-19.25227704 57.27392669 -18.60916475 54.5703647 -18 51.8125 C-15.8081311 42.50572754 -13.00953018 33.4420202 -10 24.375 C-9.79084961 23.73551422 -9.58169922 23.09602844 -9.36621094 22.43716431 C-6.80283989 14.62106388 -3.94400881 7.22718635 0 0 Z " fill="#0A0A0A" transform="translate(587,68)"/>
<path d="M0 0 C4.43518675 1.83934166 7.85894307 3.910397 10.1484375 8.28125 C10.1484375 11.76422477 9.90003343 13.50181718 7.4609375 16.03125 C1.54401015 19.22958911 -4.20181245 20.36484437 -10.8515625 19.28125 C-21.58432112 15.18211207 -21.58432112 15.18211207 -24.8515625 10.28125 C-25.2890625 7.34375 -25.2890625 7.34375 -24.8515625 4.28125 C-18.16690846 -2.22749209 -8.75496499 -2.2067309 0 0 Z " fill="#1B1B1B" transform="translate(350.8515625,130.71875)"/>
<path d="M0 0 C6.43946578 0.53662215 11.74489428 2.78861966 16.875 6.6875 C18.75 9.3125 18.75 9.3125 19.375 12.375 C18.75 15.3125 18.75 15.3125 16.4375 17.625 C9.98077447 21.67922301 1.55418505 21.19004464 -5.7734375 19.8515625 C-10.85638015 18.19619804 -13.54752282 15.75851084 -16.25 11.3125 C-16.4375 8.1875 -16.4375 8.1875 -15.25 5.3125 C-10.37086027 1.11417046 -6.18619532 0.59482647 0 0 Z " fill="#0E0E0E" transform="translate(431.25,128.6875)"/>
<path d="M0 0 C0.99 0 1.98 0 3 0 C4.32 4.62 5.64 9.24 7 14 C8.32 9.71 9.64 5.42 11 1 C11.66 1 12.32 1 13 1 C14.32 4.63 15.64 8.26 17 12 C19.22825644 9.77174356 19.69239369 8.34238372 20.625 5.375 C20.88539063 4.55773437 21.14578125 3.74046875 21.4140625 2.8984375 C21.60742188 2.27195313 21.80078125 1.64546875 22 1 C23.29065057 4.8719517 22.22324098 7.44232601 21.0625 11.1875 C20.86720703 11.84169922 20.67191406 12.49589844 20.47070312 13.16992188 C19.98817437 14.78227407 19.49509795 16.39146289 19 18 C18.01 18 17.02 18 16 18 C14.68 14.04 13.36 10.08 12 6 C10.68 9.96 9.36 13.92 8 18 C7.01 17.67 6.02 17.34 5 17 C5 16.34 5 15.68 5 15 C3.576875 15.061875 3.576875 15.061875 2.125 15.125 C-1 15 -1 15 -3 13 C-4.32 13 -5.64 13 -7 13 C-7.268125 13.639375 -7.53625 14.27875 -7.8125 14.9375 C-9 17 -9 17 -12 18 C-15.74618117 18.55421032 -19.4312243 19.04224409 -22.69921875 16.87109375 C-24.94830202 14.40290208 -25.9623816 12.18433016 -26.625 8.9375 C-25.74502985 4.80164032 -24.47035034 3.4079982 -21 1 C-17.87549656 0.36064431 -15.12354846 0.35314575 -12 1 C-9.4375 2.875 -9.4375 2.875 -8 5 C-8 5.66 -8 6.32 -8 7 C-5.02982306 6.37189827 -5.02982306 6.37189827 -2 5 C-0.56076801 2.49004504 -0.56076801 2.49004504 0 0 Z " fill="#F8F8F8" transform="translate(329,179)"/>
<path d="M0 0 C0.99 0.33 1.98 0.66 3 1 C4.02734375 3.73046875 4.02734375 3.73046875 4.9375 7.1875 C6.39502813 12.25836784 7.72134615 15.90168269 11 20 C11.59296875 20.80566406 12.1859375 21.61132812 12.796875 22.44140625 C23.27970965 34.61562025 44.35872486 39.29053539 59.625 40.625 C61.41624915 40.75584692 63.20779424 40.88298313 65 41 C64.34 41.474375 63.68 41.94875 63 42.4375 C62.34 42.953125 61.68 43.46875 61 44 C61 44.33 61 44.66 61 45 C41.40050501 44.64829617 20.44012239 39.39351723 6.06640625 25.375 C0.0753631 18.4892642 -1.57340939 12.42793749 -1.2734375 3.37109375 C-1 1 -1 1 0 0 Z " fill="#0B0B0B" transform="translate(31,107)"/>
<path d="M0 0 C11.85323764 6.34994874 15.16910497 19.99569701 19 32 C19.34242614 33.33102713 19.67824613 34.66382511 20 36 C14.75200982 33.66755992 13.05980366 30.08377074 11 25 C9.69764977 21.58694422 8.41930141 18.16524402 7.19360352 14.72387695 C5.80168014 10.87172319 4.2441726 7.42952192 2 4 C-0.38564077 4.57584432 -2.66682784 5.22227595 -5 6 C-6.08226 8.26040436 -6.08226 8.26040436 -7 11 C-7.95242758 13.00281913 -8.91125542 15.0026019 -9.875 17 C-12.55877786 22.72016887 -14.44349451 28.40986946 -16.04296875 34.515625 C-16.35878906 35.33546875 -16.67460937 36.1553125 -17 37 C-18.485 37.495 -18.485 37.495 -20 38 C-20.33 38.66 -20.66 39.32 -21 40 C-21.66 40 -22.32 40 -23 40 C-23.41886979 33.80910455 -21.97800739 28.98127717 -19.875 23.1875 C-19.55877686 22.30328369 -19.24255371 21.41906738 -18.91674805 20.50805664 C-10.7443094 -1.68538187 -10.7443094 -1.68538187 0 0 Z " fill="#0D0D0D" transform="translate(502,17)"/>
<path d="M0 0 C1.65 0 3.3 0 5 0 C3.41542029 5.78232597 1.49907094 11.35489245 -0.6875 16.9375 C-7.22844547 34.01757014 -12.96482309 51.6514893 -14 70 C-15.9375 70.5625 -15.9375 70.5625 -18 71 C-19.78719475 69.21280525 -19.34168643 66.80808402 -19.4375 64.375 C-19.22116104 42.97907674 -9.86743166 18.73026056 0 0 Z " fill="#0F0F0F" transform="translate(253,72)"/>
<path d="M0 0 C6.1135577 -0.78045417 9.12329967 0.95877119 14.08203125 4.4921875 C16 6 16 6 18 8 C18.45375 7.195625 18.9075 6.39125 19.375 5.5625 C21 3 21 3 23 2 C27.85651888 1.76500715 30.7103513 1.70197391 35 4 C37.30797001 3.66059264 38.91510461 3.04244769 41 2 C48.13229525 1.23582551 53.04063894 3.06155791 59 7 C61.91002351 9.4626898 64.63294184 12.00481188 67 15 C67 15.66 67 16.32 67 17 C63.87444752 17.32501412 62.48231685 17.38287966 59.97265625 15.390625 C59.34230469 14.68421875 58.71195313 13.9778125 58.0625 13.25 C52.59603052 7.23091644 52.59603052 7.23091644 45.125 4.75 C44.42375 4.8325 43.7225 4.915 43 5 C42.0406843 7.19514873 42.0406843 7.19514873 42 10 C43.44423481 12.30107561 45.10872135 14.01646386 47 16 C43.32302934 16.36452726 41.60777324 16.48317972 38.65625 14.13671875 C37.9446875 13.32847656 37.233125 12.52023438 36.5 11.6875 C33.15532473 8.08815402 30.57157867 5.75829949 26 4 C25.01 8.29 24.02 12.58 23 17 C21.35 17 19.7 17 18 17 C15.859375 14.76953125 15.859375 14.76953125 13.75 11.8125 C9.74652929 6.59116677 6.02353479 3.57744633 0 1 C0 0.67 0 0.34 0 0 Z " fill="#080808" transform="translate(617,133)"/>
<path d="M0 0 C1.13050781 -0.03738281 2.26101563 -0.07476562 3.42578125 -0.11328125 C7.29382889 0.39164952 8.8995443 1.66054214 11.6875 4.3125 C11.3615051 7.35511908 10.70854739 8.2926219 8.4375 10.4375 C3.28409856 13.9511828 -1.13314218 15.11144727 -7.3125 14.3125 C-10.64889717 12.9637437 -11.89710748 12.18943977 -13.4375 8.9375 C-13.3125 6.3125 -13.3125 6.3125 -11 3.5625 C-7.09585704 0.2939152 -5.05040509 0.10867236 0 0 Z " fill="#F4F4F4" transform="translate(344.3125,132.6875)"/>
<path d="M0 0 C2.875 1.3125 2.875 1.3125 5 3 C5.8971875 3.5878125 5.8971875 3.5878125 6.8125 4.1875 C8.78175938 7.19321169 8.06746534 10.46694682 8 14 C4.56153253 13.91918418 1.12484688 13.80633848 -2.3125 13.6875 C-3.28896484 13.66494141 -4.26542969 13.64238281 -5.27148438 13.61914062 C-6.20927734 13.58369141 -7.14707031 13.54824219 -8.11328125 13.51171875 C-8.97735596 13.48553467 -9.84143066 13.45935059 -10.73168945 13.43237305 C-13.44327238 12.91550582 -14.35092687 12.17982441 -16 10 C-16.5 7.5625 -16.5 7.5625 -16 5 C-10.83880421 0.11044609 -6.90981845 -0.68259905 0 0 Z " fill="#F8F8F8" transform="translate(505,133)"/>
<path d="M0 0 C0.875 2.6875 0.875 2.6875 1 5 C-4.21267357 9.41944064 -6.40497353 11.14829974 -13.4375 11.1875 C-14.59121094 11.20167969 -15.74492187 11.21585938 -16.93359375 11.23046875 C-20 11 -20 11 -23 9 C-23.5625 6.1875 -23.5625 6.1875 -23 3 C-16.46275231 -3.6858215 -8.13968639 -5.62025965 0 0 Z " fill="#F6F6F6" transform="translate(444,135)"/>
<path d="M0 0 C0.66 1.32 1.32 2.64 2 4 C1.06027344 4.38091797 1.06027344 4.38091797 0.1015625 4.76953125 C-0.71570313 5.11371094 -1.53296875 5.45789063 -2.375 5.8125 C-3.18710937 6.14894531 -3.99921875 6.48539063 -4.8359375 6.83203125 C-7.30147458 7.94439082 -7.30147458 7.94439082 -9 11 C-9 12.65 -9 14.3 -9 16 C0.24 16 9.48 16 19 16 C19.66 17.32 20.32 18.64 21 20 C11.20697552 22.19803355 -0.33769378 24.69024275 -9.40625 19.1953125 C-11.91864049 17.31101963 -13.50892852 15.78765537 -15 13 C-15.12447658 9.51465586 -15.02874908 7.19408376 -12.6875 4.4765625 C-8.53466772 0.88436258 -5.37355572 -0.14523124 0 0 Z " fill="#111111" transform="translate(537,128)"/>
<path d="M0 0 C3.40679743 0.80087462 5.07420115 2.81625753 7.16015625 5.5078125 C6.17015625 6.0028125 6.17015625 6.0028125 5.16015625 6.5078125 C4.50015625 6.1778125 3.84015625 5.8478125 3.16015625 5.5078125 C2.83015625 6.4978125 2.50015625 7.4878125 2.16015625 8.5078125 C1.83015625 8.8378125 1.50015625 9.1678125 1.16015625 9.5078125 C3.14015625 9.5078125 5.12015625 9.5078125 7.16015625 9.5078125 C6.84777821 12.39730934 6.51676746 14.09414349 4.59765625 16.3203125 C1.09153622 18.02842226 -2.07147278 18.26581815 -5.83984375 17.5078125 C-8.6884667 16.15561806 -9.69910427 15.02318139 -11.83984375 12.5078125 C-12.70285547 8.1142983 -12.36770385 6.30811652 -9.90234375 2.5703125 C-6.32368637 0.1601963 -4.23421131 -0.21206401 0 0 Z " fill="#F9F9F9" transform="translate(655.83984375,179.4921875)"/>
<path d="M0 0 C5.57516342 3.00457909 10.61379096 7.14488735 15.1875 11.5 C15.1875 12.16 15.1875 12.82 15.1875 13.5 C12.00736902 13.83475063 10.60609637 13.80470266 7.9765625 11.890625 C7.26242187 11.18421875 6.54828125 10.4778125 5.8125 9.75 C-0.54671589 3.72064882 -0.54671589 3.72064882 -8.75 1.25 C-9.7709375 1.37375 -9.7709375 1.37375 -10.8125 1.5 C-12.47739182 5.42438786 -13.68454037 9.39100419 -14.8125 13.5 C-17.125 13.734375 -17.125 13.734375 -19.8125 13.5 C-21.4375 11.890625 -21.4375 11.890625 -22.8125 9.75 C-25.16233737 6.33369797 -27.4006319 3.92422207 -30.8125 1.5 C-31.575625 0.9225 -32.33875 0.345 -33.125 -0.25 C-33.681875 -0.6625 -34.23875 -1.075 -34.8125 -1.5 C-28.16665281 -1.15021857 -24.97585173 0.30477672 -19.8125 4.5 C-19.049375 3.530625 -18.28625 2.56125 -17.5 1.5625 C-12.93920098 -4.2309474 -6.09447974 -2.74627791 0 0 Z " fill="#111111" transform="translate(399.8125,136.5)"/>
<path d="M0 0 C4.875 0.875 4.875 0.875 6 2 C6.32351301 4.83972535 6.5130429 7.68073737 6.71875 10.53125 C6.73385265 12.9413605 6.73385265 12.9413605 8 14 C10.01594582 14.23427778 12.038474 14.41336124 14.0625 14.5625 C17.0015625 14.7790625 17.0015625 14.7790625 20 15 C20 10.71 20 6.42 20 2 C25 3 25 3 26 4 C26.07313567 6.53049402 26.09247527 9.03304837 26.0625 11.5625 C26.05798828 12.27341797 26.05347656 12.98433594 26.04882812 13.71679688 C26.03700864 15.47790013 26.01907263 17.23896036 26 19 C23.62429457 19.0816082 21.25144159 19.14077222 18.875 19.1875 C18.20984375 19.21263672 17.5446875 19.23777344 16.859375 19.26367188 C10.54928296 19.35646735 6.77429348 17.58143549 2.125 13.4375 C-1.05210619 9.42805289 -0.43220713 4.8599291 0 0 Z " fill="#151515" transform="translate(589,131)"/>
<path d="M0 0 C0.33 0 0.66 0 1 0 C1.33 3.3 1.66 6.6 2 10 C3.32 10 4.64 10 6 10 C6.33 8.68 6.66 7.36 7 6 C7.66 7.65 8.32 9.3 9 11 C10.03125 10.505 11.0625 10.01 12.125 9.5 C19.10829294 6.88593313 28.19772347 6.50171752 35.1875 9.3125 C39.52173913 11.91304348 39.52173913 11.91304348 41 14 C41 14.99 41 15.98 41 17 C39.35 17.33 37.7 17.66 36 18 C35.505 17.236875 35.01 16.47375 34.5 15.6875 C31.33232828 12.2822529 28.53119353 10.92271577 24 10 C19.98862239 9.87980891 16.72341755 10.60815401 13.16357422 12.53637695 C9.63715598 14.16786926 7.36841032 14.34812015 3.5078125 14.29296875 C2.30898437 14.28330078 1.11015625 14.27363281 -0.125 14.26367188 C-1.98125 14.2259668 -1.98125 14.2259668 -3.875 14.1875 C-5.13570312 14.17396484 -6.39640625 14.16042969 -7.6953125 14.14648438 C-10.79731454 14.11123435 -13.89843534 14.06195504 -17 14 C-16.67 13.34 -16.34 12.68 -16 12 C-16.99 11.34 -17.98 10.68 -19 10 C-12.73 10 -6.46 10 0 10 C0 6.7 0 3.4 0 0 Z " fill="#282828" transform="translate(233,132)"/>
<path d="M0 0 C3.48162222 1.35883457 6.86717345 2.84994544 10.25 4.4375 C22.25679447 9.90243992 33.86285978 12.14224858 47 13 C46.34 13.474375 45.68 13.94875 45 14.4375 C44.34 14.953125 43.68 15.46875 43 16 C43 16.33 43 16.66 43 17 C27.68338022 16.72515038 12.5902637 13.17688083 -1 6 C-0.34 5.67 0.32 5.34 1 5 C0.67 3.35 0.34 1.7 0 0 Z " fill="#111111" transform="translate(49,135)"/>
<path d="M0 0 C2.5625 2 2.5625 2 4 4 C1.03 3.67 -1.94 3.34 -5 3 C-5.66 4.98 -6.32 6.96 -7 9 C-3.04 9 0.92 9 5 9 C4 14 4 14 2.4375 15.8125 C-1.03479639 17.50413158 -4.26514893 17.82255649 -8 17 C-10.9375 14.5625 -10.9375 14.5625 -13 12 C-13.33 11.67 -13.66 11.34 -14 11 C-13.79258701 7.33570379 -13.4374597 4.71087201 -11.5 1.5625 C-7.7717976 -0.7676265 -4.27975516 -0.81668722 0 0 Z " fill="#ABABAB" transform="translate(489,180)"/>
<path d="M0 0 C-0.58476056 7.09406894 -1.63233995 14.01563899 -3 21 C-4.98 21.33 -6.96 21.66 -9 22 C-12.52309732 16.9355476 -13.44314589 13.3859538 -13.43359375 7.234375 C-12.91036293 4.53808647 -12.20931621 3.60110445 -10 2 C-9.01 2 -8.02 2 -7 2 C-7 3.98 -7 5.96 -7 8 C-6.38125 6.865625 -5.7625 5.73125 -5.125 4.5625 C-2.63636364 0 -2.63636364 0 0 0 Z " fill="#090909" transform="translate(573,128)"/>
<path d="M0 0 C2.4375 1.5625 2.4375 1.5625 4 4 C4.5625 7.5 4.5625 7.5 4 11 C1.9375 13.5 1.9375 13.5 -1 15 C-4.49305789 14.93977486 -6.90366489 14.63658168 -9.9375 12.875 C-11.6712306 9.81547541 -11.42145216 7.43182475 -11 4 C-8.11188513 -0.5054592 -5.11821063 -0.73117295 0 0 Z " fill="#F9F9F9" transform="translate(316,181)"/>
<path d="M0 0 C-0.33 0.66 -0.66 1.32 -1 2 C-3.01513672 2.34716797 -3.01513672 2.34716797 -5.6796875 2.4921875 C-6.66179199 2.5550293 -7.64389648 2.61787109 -8.65576172 2.68261719 C-9.71811035 2.74610352 -10.78045898 2.80958984 -11.875 2.875 C-29.50102111 4.15546706 -45.39396151 8.08227795 -62 14 C-62.99 14.33 -63.98 14.66 -65 15 C-64.921875 13.18359375 -64.921875 13.18359375 -64 11 C-61.7106742 9.77714975 -59.68150156 8.90195042 -57.25 8.0625 C-56.53755127 7.81161621 -55.82510254 7.56073242 -55.09106445 7.30224609 C-52.73715857 6.50034663 -50.37302459 5.74332838 -48 5 C-47.2147998 4.75008301 -46.42959961 4.50016602 -45.62060547 4.24267578 C-30.44499892 -0.41750135 -15.77508088 -0.58346435 0 0 Z " fill="#171717" transform="translate(179,15)"/>
<path d="M0 0 C2.625 -0.1875 2.625 -0.1875 5 0 C2.09825756 10.58881453 -1.88855896 20.82959322 -6 31 C-6.66 31 -7.32 31 -8 31 C-8 31.99 -8 32.98 -8 34 C-8.66 34 -9.32 34 -10 34 C-10.48806108 26.36420561 -8.8737691 20.71092727 -6.125 13.625 C-5.76019531 12.64144531 -5.39539063 11.65789062 -5.01953125 10.64453125 C-3.57489639 6.80442912 -2.28425954 3.42638932 0 0 Z " fill="#0A0A0A" transform="translate(253,72)"/>
<path d="M0 0 C-3.2044249 1.79723115 -6.22757784 2.5623815 -9.8125 3.3125 C-16.55644813 4.9471476 -20.84907285 7.15318466 -25.125 12.8125 C-27 15 -27 15 -29.75 15.3125 C-30.86375 15.1578125 -30.86375 15.1578125 -32 15 C-32.350625 13.9275 -32.70125 12.855 -33.0625 11.75 C-34.5837248 8.27090255 -36.41068453 6.4544524 -39.8828125 4.7109375 C-43.82203341 3.38817328 -47.87071761 3.16616831 -52 3 C-51.67 2.34 -51.34 1.68 -51 1 C-42.4230686 0.57430671 -36.04486051 1.05062254 -29 6.1875 C-28.34 6.785625 -27.68 7.38375 -27 8 C-26.195625 7.401875 -25.39125 6.80375 -24.5625 6.1875 C-17.24447832 1.29725802 -8.64115033 -0.16943432 0 0 Z " fill="#2B2B2B" transform="translate(323,135)"/>
<path d="M0 0 C-3.01792248 1.76159276 -4.91337911 2.15435888 -8.375 1.875 C-12.98560844 1.77592907 -15.56945478 2.74538017 -19 6 C-19.66743877 8.58655333 -19.66743877 8.58655333 -19 11 C-16.64641749 13.35358251 -16.07031606 13.27871904 -12.8671875 13.4140625 C-11.65869141 13.47207031 -11.65869141 13.47207031 -10.42578125 13.53125 C-9.16314453 13.57765625 -9.16314453 13.57765625 -7.875 13.625 C-7.02550781 13.66367188 -6.17601562 13.70234375 -5.30078125 13.7421875 C-3.20088316 13.83656494 -1.10047109 13.91937586 1 14 C1 14.33 1 14.66 1 15 C-2.06206477 15.24941254 -5.12283083 15.47514145 -8.1875 15.6875 C-9.05181641 15.76033203 -9.91613281 15.83316406 -10.80664062 15.90820312 C-15.785821 16.23251756 -18.9445454 16.29653912 -23 13 C-25.75723001 10.42658532 -25.98812253 9.33256909 -26.125 5.5 C-25 2 -25 2 -22.25 -0.4375 C-15.50234358 -3.69933391 -6.66013492 -3.09485823 0 0 Z " fill="#131313" transform="translate(509,132)"/>
<path d="M0 0 C0.99 0 1.98 0 3 0 C3 2.97 3 5.94 3 9 C6.63 9 10.26 9 14 9 C11.9375 11.5 11.9375 11.5 9 14 C5.1875 14.3125 5.1875 14.3125 2 14 C1.67 15.32 1.34 16.64 1 18 C0.34 16.68 -0.32 15.36 -1 14 C-1.99 14.495 -1.99 14.495 -3 15 C-4.87862875 14.91255632 -6.75455181 14.75824458 -8.625 14.5625 C-9.62789063 14.46066406 -10.63078125 14.35882813 -11.6640625 14.25390625 C-12.43492187 14.17011719 -13.20578125 14.08632812 -14 14 C-11.9375 11.5 -11.9375 11.5 -9 9 C-5.1875 8.6875 -5.1875 8.6875 -2 9 C-1.855625 7.700625 -1.71125 6.40125 -1.5625 5.0625 C-1.125 1.125 -1.125 1.125 0 0 Z " fill="#050505" transform="translate(467,120)"/>
<path d="M0 0 C4.4896784 0.5131061 6.80563679 1.80563679 10 5 C16.72199286 13.84088191 20.42120397 25.29081258 23 36 C17.75200982 33.66755992 16.05980366 30.08377074 14 25 C12.69764977 21.58694422 11.41930141 18.16524402 10.19360352 14.72387695 C8.80168014 10.87172319 7.2441726 7.42952192 5 4 C2.83125748 4.50603992 1.00032373 4.99983813 -1 6 C-0.67 4.02 -0.34 2.04 0 0 Z " fill="#121212" transform="translate(499,17)"/>
<path d="M0 0 C4.45056175 1.11264044 4.52726311 1.55967041 7 5 C7.99 5.33 8.98 5.66 10 6 C10.66 4.02 11.32 2.04 12 0 C12.99 0 13.98 0 15 0 C15 5.61 15 11.22 15 17 C10.79547321 14.89773661 9.77628482 13.66442723 7.25 9.875 C6.63640625 8.96492187 6.0228125 8.05484375 5.390625 7.1171875 C4.70226562 6.06917969 4.70226562 6.06917969 4 5 C3.67 8.63 3.34 12.26 3 16 C2.01 16.33 1.02 16.66 0 17 C0 11.39 0 5.78 0 0 Z " fill="#D2D2D2" transform="translate(620,180)"/>
<path d="M0 0 C8 0 8 0 11 2 C11.4375 4.9375 11.4375 4.9375 11 8 C9 9.875 9 9.875 7 11 C8.98 13.97 8.98 13.97 11 17 C10.071875 16.67 9.14375 16.34 8.1875 16 C5.07970709 14.85032996 5.07970709 14.85032996 2 15 C1.34 15.66 0.68 16.32 0 17 C0 11.39 0 5.78 0 0 Z " fill="#ABABAB" transform="translate(588,180)"/>
<path d="M0 0 C1.72974441 0.00015918 3.45949355 0.0058569 5.18920898 0.01586914 C6.09783188 0.01728409 7.00645477 0.01869904 7.94261169 0.02015686 C10.85687494 0.02577346 13.77106254 0.03832874 16.68530273 0.05102539 C18.65600475 0.05603825 20.62670797 0.06060153 22.59741211 0.06469727 C27.43923832 0.07574828 32.28100768 0.09302401 37.12280273 0.11352539 C37.12280273 0.44352539 37.12280273 0.77352539 37.12280273 1.11352539 C32.17280273 1.44352539 27.22280273 1.77352539 22.12280273 2.11352539 C29.05280273 2.44352539 35.98280273 2.77352539 43.12280273 3.11352539 C43.12280273 3.44352539 43.12280273 3.77352539 43.12280273 4.11352539 C36.60839273 4.18941575 30.09409613 4.24205741 23.5793457 4.27832031 C21.36185445 4.29343292 19.14439321 4.31392365 16.92700195 4.33984375 C13.74479785 4.37611832 10.56298791 4.39322678 7.38061523 4.40649414 C5.88680832 4.42971992 5.88680832 4.42971992 4.36282349 4.45341492 C2.98161819 4.45375481 2.98161819 4.45375481 1.57250977 4.45410156 C0.75976593 4.4607634 -0.05297791 4.46742523 -0.89035034 4.47428894 C-1.54600983 4.35523697 -2.20166931 4.236185 -2.87719727 4.11352539 C-3.53719727 3.12352539 -4.19719727 2.13352539 -4.87719727 1.11352539 C-3.87719727 0.11352539 -3.87719727 0.11352539 0 0 Z " fill="#2E2E2E" transform="translate(95.877197265625,148.886474609375)"/>
<path d="M0 0 C8 0 8 0 11 2 C11.4375 4.9375 11.4375 4.9375 11 8 C9 9.875 9 9.875 7 11 C8.98 13.97 8.98 13.97 11 17 C7.6273066 15.60440273 5.91954898 14.1078412 4 11 C3.67 9.68 3.34 8.36 3 7 C2.67 10.3 2.34 13.6 2 17 C1.34 17 0.68 17 0 17 C0 11.39 0 5.78 0 0 Z " fill="#9D9D9D" transform="translate(283,180)"/>
<path d="M0 0 C0 0.33 0 0.66 0 1 C-1.051875 1.226875 -2.10375 1.45375 -3.1875 1.6875 C-7.16827855 2.80179501 -9.28228936 4.88262603 -12 8 C-12.33 8.33 -12.66 8.66 -13 9 C-13.04080783 10.99958364 -13.04254356 13.00045254 -13 15 C-10.29816945 16.35091528 -7.88191794 16.33858058 -4.875 16.5625 C-3.23144531 16.68818359 -3.23144531 16.68818359 -1.5546875 16.81640625 C-0.29011719 16.90728516 -0.29011719 16.90728516 1 17 C1 17.33 1 17.66 1 18 C-9.73679891 19.59835841 -9.73679891 19.59835841 -14.5625 17.3125 C-18.90243902 13.19512195 -18.90243902 13.19512195 -20 11 C-20.0625 8 -20.0625 8 -19 5 C-13.11057139 -0.06764788 -7.48559038 -0.14971181 0 0 Z " fill="#1E1E1E" transform="translate(435,129)"/>
<path d="M0 0 C1.65 0 3.3 0 5 0 C4.30708088 4.43981513 2.75765004 8.42828516 1.0625 12.5625 C0.79759766 13.22185547 0.53269531 13.88121094 0.25976562 14.56054688 C-1.04159824 17.77359165 -2.3839123 20.93177553 -4 24 C-5 21 -5 21 -4 18 C-4.66 18 -5.32 18 -6 18 C-6 18.99 -6 19.98 -6 21 C-6.66 21 -7.32 21 -8 21 C-6.22962267 13.4291181 -3.74139138 6.81731788 0 0 Z " fill="#181818" transform="translate(587,68)"/>
<path d="M0 0 C2.97 0 5.94 0 9 0 C9 0.33 9 0.66 9 1 C6.69 1 4.38 1 2 1 C2 3.31 2 5.62 2 8 C4.31 8 6.62 8 9 8 C9 8.33 9 8.66 9 9 C6.69 9 4.38 9 2 9 C2 10.98 2 12.96 2 15 C3.32 15 4.64 15 6 15 C6.33 14.01 6.66 13.02 7 12 C8.75 9.8125 8.75 9.8125 11 8 C13.75 7.75 13.75 7.75 16 8 C15.67 10.31 15.34 12.62 15 15 C13.35 15 11.7 15 10 15 C10 15.99 10 16.98 10 18 C8.52093108 18.02689216 7.04172517 18.04634621 5.5625 18.0625 C4.32693359 18.07990234 4.32693359 18.07990234 3.06640625 18.09765625 C1 18 1 18 0 17 C-0.07325168 14.13732433 -0.09238205 11.299281 -0.0625 8.4375 C-0.05798828 7.63119141 -0.05347656 6.82488281 -0.04882812 5.99414062 C-0.03700518 3.99606244 -0.01906914 1.99802217 0 0 Z " fill="#F3F3F3" transform="translate(568,180)"/>
<path d="M0 0 C0.99 0 1.98 0 3 0 C3 5.61 3 11.22 3 17 C3.99 17 4.98 17 6 17 C6 17.66 6 18.32 6 19 C5.34 19 4.68 19 4 19 C3.67 20.98 3.34 22.96 3 25 C2.34 25 1.68 25 1 25 C1.33 25.99 1.66 26.98 2 28 C1.01 28 0.02 28 -1 28 C-1.02886338 23.52084672 -1.04675187 19.04171709 -1.0625 14.5625 C-1.07087891 13.28310547 -1.07925781 12.00371094 -1.08789062 10.68554688 C-1.09111328 9.47060547 -1.09433594 8.25566406 -1.09765625 7.00390625 C-1.10289307 5.87799072 -1.10812988 4.7520752 -1.11352539 3.59204102 C-1 1 -1 1 0 0 Z " fill="#010101" transform="translate(460,203)"/>
<path d="M0 0 C4.875 0.875 4.875 0.875 6 2 C6.32351301 4.83972535 6.5130429 7.68073737 6.71875 10.53125 C6.73385265 12.9413605 6.73385265 12.9413605 8 14 C10.01594582 14.23427778 12.038474 14.41336124 14.0625 14.5625 C17.0015625 14.7790625 17.0015625 14.7790625 20 15 C20 10.71 20 6.42 20 2 C20.99 2.33 21.98 2.66 23 3 C22.34 3 21.68 3 21 3 C21 7.29 21 11.58 21 16 C7.98433897 17.97056446 7.98433897 17.97056446 3.66796875 15.859375 C0.34163825 12.39545905 -0.31428635 9.29816492 -0.375 4.5625 C-0.27967182 3.03951886 -0.16482859 1.51703348 0 0 Z " fill="#333333" transform="translate(589,131)"/>
<path d="M0 0 C5.57516342 3.00457909 10.61379096 7.14488735 15.1875 11.5 C15.1875 12.16 15.1875 12.82 15.1875 13.5 C12.00736902 13.83475063 10.60609637 13.80470266 7.9765625 11.890625 C7.26242187 11.18421875 6.54828125 10.4778125 5.8125 9.75 C-0.51908657 3.80626011 -0.51908657 3.80626011 -8.625 1.125 C-11.0155668 1.31809032 -11.0155668 1.31809032 -12.8125 3.5 C-12.8125 2.18 -12.8125 0.86 -12.8125 -0.5 C-13.4725 -0.83 -14.1325 -1.16 -14.8125 -1.5 C-9.72335068 -3.19638311 -4.80170363 -2.16373065 0 0 Z " fill="#0E0E0E" transform="translate(399.8125,136.5)"/>
<path d="M0 0 C0.68964844 -0.01224609 1.37929688 -0.02449219 2.08984375 -0.03710938 C3.89477494 -0.04238695 5.69917842 0.06565542 7.5 0.1875 C8.16 0.8475 8.82 1.5075 9.5 2.1875 C8.69175781 2.29707031 7.88351562 2.40664062 7.05078125 2.51953125 C5.44783203 2.75736328 5.44783203 2.75736328 3.8125 3 C2.75675781 3.15082031 1.70101563 3.30164063 0.61328125 3.45703125 C-2.64778423 4.22217459 -4.80115978 5.22120212 -7.5 7.1875 C-8.84689915 9.75849402 -8.84689915 9.75849402 -9.5 12.1875 C-11.15 11.8575 -12.8 11.5275 -14.5 11.1875 C-14.8125 8.4375 -14.8125 8.4375 -14.5 5.1875 C-9.78169196 0.59335796 -6.35708273 0.0059412 0 0 Z " fill="#050505" transform="translate(340.5,129.8125)"/>
<path d="M0 0 C0.66 0 1.32 0 2 0 C3.32 4.29 4.64 8.58 6 13 C7.32 8.71 8.64 4.42 10 0 C10.66 0 11.32 0 12 0 C13.32 3.63 14.64 7.26 16 11 C18.22825644 8.77174356 18.69239369 7.34238372 19.625 4.375 C19.88539063 3.55773437 20.14578125 2.74046875 20.4140625 1.8984375 C20.60742188 1.27195313 20.80078125 0.64546875 21 0 C22.29065057 3.8719517 21.22324098 6.44232601 20.0625 10.1875 C19.86720703 10.84169922 19.67191406 11.49589844 19.47070312 12.16992188 C18.98817437 13.78227407 18.49509795 15.39146289 18 17 C17.01 17 16.02 17 15 17 C13.68 13.04 12.36 9.08 11 5 C9.68 8.96 8.36 12.92 7 17 C6.01 16.67 5.02 16.34 4 16 C3.11917378 13.28681956 2.42123771 10.71116483 1.8125 7.9375 C1.63525391 7.17888672 1.45800781 6.42027344 1.27539062 5.63867188 C0.83863033 3.76178303 0.41780844 1.8811984 0 0 Z " fill="#3E3E3E" transform="translate(330,180)"/>
<path d="M0 0 C3.3 0 6.6 0 10 0 C9.22404875 3.10380501 8.4731994 5.25002779 7 8 C7.66 8 8.32 8 9 8 C9 8.66 9 9.32 9 10 C6.36 10 3.72 10 1 10 C1 12.31 1 14.62 1 17 C3.64 17 6.28 17 9 17 C9 17.33 9 17.66 9 18 C6.03 18 3.06 18 0 18 C0 12.06 0 6.12 0 0 Z " fill="#777777" transform="translate(182,179)"/>
<path d="M0 0 C7.65832917 0.29455112 13.34261178 3.37172342 20 7 C19.34 8.32 18.68 9.64 18 11 C13.86840367 10.36495834 10.50273514 9.01303002 6.75 7.1875 C5.69296875 6.68605469 4.6359375 6.18460938 3.546875 5.66796875 C1 4 1 4 0.140625 1.80078125 C0.09421875 1.20652344 0.0478125 0.61226562 0 0 Z " fill="#121212" transform="translate(199,18)"/>
<path d="M0 0 C0.99 0 1.98 0 3 0 C5.31 5.28 7.62 10.56 10 16 C9.34 16.33 8.68 16.66 8 17 C7.34 15.02 6.68 13.04 6 11 C1.545 11.495 1.545 11.495 -3 12 C-3.66 13.65 -4.32 15.3 -5 17 C-5.66 17 -6.32 17 -7 17 C-5.1668733 11.00067626 -2.92678249 5.55079437 0 0 Z " fill="#3E3E3E" transform="translate(367,180)"/>
<path d="M0 0 C3 1 3 1 4.640625 3.8359375 C5.17171875 5.00382813 5.7028125 6.17171875 6.25 7.375 C6.79140625 8.53773438 7.3328125 9.70046875 7.890625 10.8984375 C9 14 9 14 8 17 C7.690625 16.195625 7.38125 15.39125 7.0625 14.5625 C5.29423085 11.83888394 5.29423085 11.83888394 2.796875 11.4453125 C0.52568784 11.20962327 -1.71758269 11.05263436 -4 11 C-4.33 12.98 -4.66 14.96 -5 17 C-5.66 17 -6.32 17 -7 17 C-5.1668733 11.00067626 -2.92678249 5.55079437 0 0 Z " fill="#3B3B3B" transform="translate(510,180)"/>
<path d="M0 0 C7.16004132 -0.66296679 12.00958764 1.04103662 18 5 C20.91002351 7.4626898 23.63294184 10.00481188 26 13 C26 13.66 26 14.32 26 15 C22.87444752 15.32501412 21.48231685 15.38287966 18.97265625 13.390625 C18.34230469 12.68421875 17.71195313 11.9778125 17.0625 11.25 C11.88701526 5.76437385 7.29487358 2.75076966 0 1 C0 0.67 0 0.34 0 0 Z " fill="#141414" transform="translate(658,135)"/>
<path d="M0 0 C4.33423913 2.60054348 4.33423913 2.60054348 5.8125 4.6875 C5.8125 5.6775 5.8125 6.6675 5.8125 7.6875 C4.1625 8.0175 2.5125 8.3475 0.8125 8.6875 C0.3175 7.924375 -0.1775 7.16125 -0.6875 6.375 C-3.8509835 2.97425523 -6.65788381 1.59999981 -11.1875 0.6875 C-15.81192906 0.62788489 -20.00626529 1.72754623 -24.1875 3.6875 C-24.8475 3.0275 -25.5075 2.3675 -26.1875 1.6875 C-18.28085863 -2.10768786 -8.33347969 -3.35112268 0 0 Z " fill="#0F0F0F" transform="translate(268.1875,141.3125)"/>
<path d="M0 0 C0 0.99 0 1.98 0 3 C-11.55 3 -23.1 3 -35 3 C-34.67 2.34 -34.34 1.68 -34 1 C-31.2890625 0.5859375 -31.2890625 0.5859375 -27.625 0.375 C-26.97394287 0.33705322 -26.32288574 0.29910645 -25.65209961 0.26000977 C-17.10853524 -0.18101937 -8.55145708 -0.08284512 0 0 Z " fill="#040404" transform="translate(152,149)"/>
<path d="M0 0 C6.02096945 -0.7686344 9.05369229 0.88332543 13.984375 4.296875 C16.03364071 6.0284251 17.48528184 7.79503052 19 10 C18.34 10 17.68 10 17 10 C17.6954344 13.00384054 17.6954344 13.00384054 19 16 C21.03243548 16.96877057 21.03243548 16.96877057 23 17 C20.765625 17.32421875 20.765625 17.32421875 18 17 C15.859375 14.76953125 15.859375 14.76953125 13.75 11.8125 C9.74652929 6.59116677 6.02353479 3.57744633 0 1 C0 0.67 0 0.34 0 0 Z " fill="#171717" transform="translate(617,133)"/>
<path d="M0 0 C0.33 0 0.66 0 1 0 C1.11459026 7.41017023 0.91160286 14.64206267 0 22 C-0.66 21.01 -1.32 20.02 -2 19 C-2.66 19 -3.32 19 -4 19 C-4.33 21.64 -4.66 24.28 -5 27 C-5.33 27 -5.66 27 -6 27 C-6.64312204 16.76364092 -4.65757654 9.06339219 0 0 Z " fill="#202020" transform="translate(35,89)"/>
<path d="M0 0 C0.66 0 1.32 0 2 0 C2 2.31 2 4.62 2 7 C4.97 7 7.94 7 11 7 C11 4.69 11 2.38 11 0 C11.66 0 12.32 0 13 0 C13 5.61 13 11.22 13 17 C12.34 17 11.68 17 11 17 C11 14.36 11 11.72 11 9 C8.03 9 5.06 9 2 9 C2 11.64 2 14.28 2 17 C1.34 17 0.68 17 0 17 C0 11.39 0 5.78 0 0 Z " fill="#5D5D5D" transform="translate(545,180)"/>
<path d="M0 0 C0.66 1.32 1.32 2.64 2 4 C-6.07953776 5.81344335 -13.73252149 6.23658921 -22 6 C-22 5.67 -22 5.34 -22 5 C-18.7 4.67 -15.4 4.34 -12 4 C-12 3.67 -12 3.34 -12 3 C-16.29 2.67 -20.58 2.34 -25 2 C-25 1.67 -25 1.34 -25 1 C-16.64895793 0.31728707 -8.38011029 -0.15392039 0 0 Z " fill="#434343" transform="translate(556,144)"/>
<path d="M0 0 C2.5625 2 2.5625 2 4 4 C1.03 3.67 -1.94 3.34 -5 3 C-6.32 5.97 -7.64 8.94 -9 12 C-10.65 11.67 -12.3 11.34 -14 11 C-13.72139186 7.3780942 -13.42061885 4.68350563 -11.5 1.5625 C-7.7717976 -0.7676265 -4.27975516 -0.81668722 0 0 Z " fill="#A2A2A2" transform="translate(489,180)"/>
<path d="M0 0 C0 0.33 0 0.66 0 1 C-2.31 1.33 -4.62 1.66 -7 2 C-6.34 2.66 -5.68 3.32 -5 4 C-13.01659634 5.12513633 -20.92138585 5.09579384 -29 5 C-29 4.34 -29 3.68 -29 3 C-30.98 3 -32.96 3 -35 3 C-35 2.67 -35 2.34 -35 2 C-33.081875 1.90912109 -33.081875 1.90912109 -31.125 1.81640625 C-29.4166589 1.73192784 -27.70832599 1.64728359 -26 1.5625 C-25.16082031 1.52318359 -24.32164062 1.48386719 -23.45703125 1.44335938 C-19.4996905 1.24395848 -15.58588776 0.98563863 -11.65625 0.46875 C-7.68770518 -0.0400378 -3.99007662 -0.07125137 0 0 Z " fill="#131313" transform="translate(181,146)"/>
<path d="M0 0 C8.25428679 -0.40967968 14.73613143 -0.22390062 21.5625 4.9375 C23 7 23 7 22.75 9.25 C22.5025 9.8275 22.255 10.405 22 11 C20.68 11 19.36 11 18 11 C17.319375 9.8553125 17.319375 9.8553125 16.625 8.6875 C14.48723635 5.15196781 12.8760579 4.4094756 9 3 C5.673314 2.48781964 2.35935503 2.19253221 -1 2 C-0.67 1.34 -0.34 0.68 0 0 Z " fill="#1D1D1D" transform="translate(272,136)"/>
<path d="M0 0 C0.66 0 1.32 0 2 0 C2.5939348 7.57266875 0.43286286 13.87518733 -2 21 C-4 18 -4 18 -4 16 C-4.66 16 -5.32 16 -6 16 C-5.40895235 11.15340923 -4.02055843 7.39251833 -2 3 C-1.34 3 -0.68 3 0 3 C0 2.01 0 1.02 0 0 Z " fill="#0C0C0C" transform="translate(581,86)"/>
<path d="M0 0 C2.08984375 0.4140625 2.08984375 0.4140625 4.58984375 1.9765625 C6.6389421 5.30634732 7.15746291 7.49215102 7.08984375 11.4140625 C4.75418385 15.69610565 4.75418385 15.69610565 2.08984375 17.4140625 C-1.10738957 18.27396821 -3.71384887 18.28105365 -6.91015625 17.4140625 C-10.2894333 15.11958801 -11.71793618 12.35594085 -12.53515625 8.3515625 C-11.05443618 1.39217815 -6.5291552 -0.41282512 0 0 Z M-8.34765625 2.9765625 C-10.53015297 6.38125738 -10.54750087 8.44836262 -9.91015625 12.4140625 C-7.97889523 15.09244823 -7.97889523 15.09244823 -4.91015625 16.4140625 C-1.41709836 16.35383736 0.99350864 16.05064418 4.02734375 14.2890625 C5.76107435 11.22953791 5.51129591 8.84588725 5.08984375 5.4140625 C3.67317708 2.83072917 3.67317708 2.83072917 1.08984375 1.4140625 C-2.85031638 0.85118248 -4.96797821 0.81010222 -8.34765625 2.9765625 Z " fill="#464646" transform="translate(314.91015625,179.5859375)"/>
<path d="M0 0 C1 2 1 2 0.8125 5.4375 C0.64855959 8.95144392 0.64855959 8.95144392 2.5625 10.9375 C5.80082611 12.34907805 8.50813979 12.20145347 12 12 C11.67 10.68 11.34 9.36 11 8 C9.02 8 7.04 8 5 8 C5 7.34 5 6.68 5 6 C8.96 6 12.92 6 17 6 C16 11 16 11 14.4375 12.8125 C10.93137997 14.52060976 7.76837097 14.75800565 4 14 C1.15137705 12.64780556 0.14073948 11.51536889 -2 9 C-2.5 5.3125 -2.5 5.3125 -2 2 C-1.34 1.34 -0.68 0.68 0 0 Z " fill="#6C6C6C" transform="translate(646,183)"/>
<path d="M0 0 C1.32 0 2.64 0 4 0 C4 4.95 4 9.9 4 15 C2.68 15.33 1.36 15.66 0 16 C-1 15 -1 15 -1.1328125 11.875 C-1.13023437 10.59625 -1.12765625 9.3175 -1.125 8 C-1.12757813 6.72125 -1.13015625 5.4425 -1.1328125 4.125 C-1 1 -1 1 0 0 Z " fill="#030303" transform="translate(235,127)"/>
<path d="M0 0 C0.7425 0.433125 0.7425 0.433125 1.5 0.875 C7.04209885 3.36894448 13.01452077 4.2518151 19 5 C18.67 5.66 18.34 6.32 18 7 C12.72 6.67 7.44 6.34 2 6 C1.67 7.65 1.34 9.3 1 11 C0.34 11 -0.32 11 -1 11 C-1.33 12.65 -1.66 14.3 -2 16 C-2.33 16 -2.66 16 -3 16 C-3 12.7 -3 9.4 -3 6 C-2.34 5.67 -1.68 5.34 -1 5 C-0.34444881 2.47266765 -0.34444881 2.47266765 0 0 Z " fill="#2E2E2E" transform="translate(568,123)"/>
<path d="M0 0 C0.33 0 0.66 0 1 0 C1 2.31 1 4.62 1 7 C4.3 7 7.6 7 11 7 C11 4.69 11 2.38 11 0 C11.66 0 12.32 0 13 0 C13 5.61 13 11.22 13 17 C12.34 17 11.68 17 11 17 C11 14.36 11 11.72 11 9 C7.7 9 4.4 9 1 9 C1 11.64 1 14.28 1 17 C0.67 17 0.34 17 0 17 C0 11.39 0 5.78 0 0 Z " fill="#4C4C4C" transform="translate(429,180)"/>
<path d="M0 0 C0.66 1.32 1.32 2.64 2 4 C2.66 3.67 3.32 3.34 4 3 C4.268125 3.804375 4.53625 4.60875 4.8125 5.4375 C5.204375 6.283125 5.59625 7.12875 6 8 C9.31544299 9.10514766 12.20410111 9.32107631 15.6875 9.5625 C16.86699219 9.64628906 18.04648437 9.73007813 19.26171875 9.81640625 C20.16535156 9.87699219 21.06898438 9.93757812 22 10 C22 10.99 22 11.98 22 13 C14.48141298 13.44444849 9.11248749 13.68190531 3 9 C0.60638878 6.60638878 0.04358213 5.63920452 -0.1875 2.25 C-0.125625 1.5075 -0.06375 0.765 0 0 Z " fill="#141414" transform="translate(522,136)"/>
<path d="M0 0 C0.33 0.66 0.66 1.32 1 2 C-1.31 2.66 -3.62 3.32 -6 4 C-5.814375 4.721875 -5.62875 5.44375 -5.4375 6.1875 C-4.98004693 9.12826973 -5.26483643 11.14103058 -6 14 C-7.66611905 14.042721 -9.33382885 14.04063832 -11 14 C-11.33 13.67 -11.66 13.34 -12 13 C-11.84580717 8.91389009 -11.66872511 6.70693797 -8.8125 3.6875 C-5.92536167 1.955217 -3.23623152 0.90313438 0 0 Z " fill="#F0F0F0" transform="translate(539,131)"/>
<path d="M0 0 C2.625 -0.1875 2.625 -0.1875 5 0 C4.57316761 1.58624235 4.13303842 3.1689098 3.6875 4.75 C3.44386719 5.63171875 3.20023437 6.5134375 2.94921875 7.421875 C1.97874669 10.05772505 0.78994356 11.85407326 -1 14 C-1 13.01 -1 12.02 -1 11 C-2.98 11.99 -2.98 11.99 -5 13 C-4.54803755 11.39402675 -4.08817673 9.79027492 -3.625 8.1875 C-3.36976563 7.29417969 -3.11453125 6.40085937 -2.8515625 5.48046875 C-2 3 -2 3 0 0 Z " fill="#1A1A1A" transform="translate(253,72)"/>
<path d="M0 0 C8.91 0 17.82 0 27 0 C26.67 0.66 26.34 1.32 26 2 C23.04296875 2.4140625 23.04296875 2.4140625 19.1875 2.625 C18.18384399 2.68192017 18.18384399 2.68192017 17.15991211 2.73999023 C11.10702265 3.0565985 5.05999374 3.10156414 -1 3 C-0.67 2.01 -0.34 1.02 0 0 Z " fill="#080808" transform="translate(152,15)"/>
<path d="M0 0 C-0.74250597 4.08378283 -1.82923301 8.01939223 -3 12 C-3.66 12 -4.32 12 -5 12 C-5.33 14.97 -5.66 17.94 -6 21 C-6.33 21 -6.66 21 -7 21 C-7 14.4 -7 7.8 -7 1 C-2 0 -2 0 0 0 Z " fill="#E3E3E3" transform="translate(525,129)"/>
<path d="M0 0 C2.22453337 1.07107162 4.22973863 2.15990444 6.26171875 3.57421875 C9.52837275 5.27511562 11.47988176 5.21925523 15.125 5 C20.59265303 4.67275892 20.59265303 4.67275892 22.8671875 6.5 C23.42792969 7.2425 23.42792969 7.2425 24 8 C20.19360329 9.90319835 16.1364656 9.6073382 12 9 C7.81095287 7.31356436 3.90802183 5.25617755 0 3 C0 2.01 0 1.02 0 0 Z " fill="#202020" transform="translate(328,141)"/>
<path d="M0 0 C2.5 2 2.5 2 4 4 C3.29875 3.67 2.5975 3.34 1.875 3 C-1.382056 1.86711096 -3.57697562 1.56301816 -7 2 C-9.56338689 3.47993156 -9.56338689 3.47993156 -11 6 C-11 9.47744465 -10.61862598 11.26240749 -8.375 13.9375 C-4.99716 15.44863895 -2.56723152 14.7134463 1 14 C1.99 14 2.98 14 4 14 C1.35460092 16.64539908 -0.14643073 17.01859438 -3.9375 17.5 C-7.23009652 17.35229474 -8.10066139 16.93289241 -11 15 C-13.78352545 10.82471182 -13.78631447 8.95378117 -13 4 C-9.25314979 -0.68356277 -5.59661622 -0.71068143 0 0 Z " fill="#414141" transform="translate(415,180)"/>
<path d="M0 0 C0.33 0 0.66 0 1 0 C1 2.64 1 5.28 1 8 C4.3 8 7.6 8 11 8 C11 5.36 11 2.72 11 0 C11.66 0 12.32 0 13 0 C13 5.61 13 11.22 13 17 C12.34 17 11.68 17 11 17 C11 14.36 11 11.72 11 9 C7.7 9 4.4 9 1 9 C1 11.64 1 14.28 1 17 C0.67 17 0.34 17 0 17 C0 11.39 0 5.78 0 0 Z " fill="#474747" transform="translate(159,180)"/>
<path d="M0 0 C3.40419894 0.17187324 4.34974883 0.39645031 7.125 2.5625 C7.599375 3.2225 8.07375 3.8825 8.5625 4.5625 C7.469375 4.376875 6.37625 4.19125 5.25 4 C1.62625867 3.3046932 1.62625867 3.3046932 -1.4375 4.5625 C-1.4375 5.5525 -1.4375 6.5425 -1.4375 7.5625 C-2.7575 7.5625 -4.0775 7.5625 -5.4375 7.5625 C-5.7675 9.2125 -6.0975 10.8625 -6.4375 12.5625 C-6.7675 12.5625 -7.0975 12.5625 -7.4375 12.5625 C-7.64929783 8.96193681 -7.60111343 6.07515542 -6.5 2.625 C-4.0828661 0.2078661 -3.31630909 0.16363367 0 0 Z " fill="#B4B4B4" transform="translate(653.4375,179.4375)"/>
<path d="M0 0 C5.94 0.99 5.94 0.99 12 2 C12 2.66 12 3.32 12 4 C10.68 4 9.36 4 8 4 C8 9.28 8 14.56 8 20 C7.34 20 6.68 20 6 20 C6 15.05 6 10.1 6 5 C4.68 5 3.36 5 2 5 C1.34 3.35 0.68 1.7 0 0 Z " fill="#818181" transform="translate(138,177)"/>
<path d="M0 0 C3.18611089 2.05555541 4.27672528 4.86913718 5.9375 8.25 C5.9375 8.91 5.9375 9.57 5.9375 10.25 C4.2875 10.25 2.6375 10.25 0.9375 10.25 C0.9375 9.59 0.9375 8.93 0.9375 8.25 C-0.3825 7.92 -1.7025 7.59 -3.0625 7.25 C-3.0625 6.59 -3.0625 5.93 -3.0625 5.25 C-3.7225 4.92 -4.3825 4.59 -5.0625 4.25 C-5.0625 4.91 -5.0625 5.57 -5.0625 6.25 C-5.7225 5.92 -6.3825 5.59 -7.0625 5.25 C-2.74488213 0.33271299 -2.74488213 0.33271299 0 0 Z " fill="#F4F4F4" transform="translate(503.0625,19.75)"/>
<path d="M0 0 C3.93809611 3.76687454 3.93809611 3.76687454 4.09765625 6.9453125 C4.06510417 8.96354167 4.03255208 10.98177083 4 13 C1.03 12.505 1.03 12.505 -2 12 C-2.28571429 3.42857143 -2.28571429 3.42857143 0 0 Z " fill="#1B1B1B" transform="translate(465,133)"/>
<path d="M0 0 C4 0 4 0 6 1 C6 1.66 6 2.32 6 3 C6.66 3 7.32 3 8 3 C7.01 6.96 6.02 10.92 5 15 C3.31626595 11.6325319 2.31781585 8.84984234 1.375 5.25 C1.11460937 4.26515625 0.85421875 3.2803125 0.5859375 2.265625 C0.39257812 1.51796875 0.19921875 0.7703125 0 0 Z " fill="#F4F4F4" transform="translate(342,180)"/>
<path d="M0 0 C0.33 0 0.66 0 1 0 C1 4.95 1 9.9 1 15 C0.67 14.34 0.34 13.68 0 13 C-1.98 13.66 -3.96 14.32 -6 15 C-4.36041242 9.76727367 -2.61047965 4.84803364 0 0 Z " fill="#EDEDED" transform="translate(232,182)"/>
<path d="M0 0 C2.97 0 5.94 0 9 0 C9 0.33 9 0.66 9 1 C6.69 1 4.38 1 2 1 C2 3.31 2 5.62 2 8 C4.31 8 6.62 8 9 8 C9 8.33 9 8.66 9 9 C6.69 9 4.38 9 2 9 C2 11.31 2 13.62 2 16 C4.31 16 6.62 16 9 16 C9 16.33 9 16.66 9 17 C6.03 17 3.06 17 0 17 C0 11.39 0 5.78 0 0 Z " fill="#434343" transform="translate(568,180)"/>
<path d="M0 0 C0.99 0 1.98 0 3 0 C2.37954537 4.23322844 0.89476441 7.52290295 -1.0625 11.3125 C-1.61035156 12.38113281 -2.15820312 13.44976562 -2.72265625 14.55078125 C-3.14417969 15.35902344 -3.56570312 16.16726562 -4 17 C-4.33 17 -4.66 17 -5 17 C-5.65597626 10.70262794 -4.84099118 6.75504046 -1.38671875 1.43359375 C-0.70029297 0.72396484 -0.70029297 0.72396484 0 0 Z " fill="#0E0E0E" transform="translate(41,80)"/>
<path d="M0 0 C0.66 0.33 1.32 0.66 2 1 C2 1.99 2 2.98 2 4 C3.32 4 4.64 4 6 4 C6.66 4 7.32 4 8 4 C8.33 5.32 8.66 6.64 9 8 C8.34 8 7.68 8 7 8 C6.34 9.32 5.68 10.64 5 12 C3.96386967 10.76265016 2.94652198 9.50955363 1.9375 8.25 C1.36902344 7.55390625 0.80054688 6.8578125 0.21484375 6.140625 C-1 4 -1 4 -0.68359375 1.734375 C-0.45800781 1.16203125 -0.23242188 0.5896875 0 0 Z " fill="#F4F4F4" transform="translate(39,119)"/>
<path d="M0 0 C0.99 0.33 1.98 0.66 3 1 C3 3.64 3 6.28 3 9 C1.35 9.33 -0.3 9.66 -2 10 C-4 7 -4 7 -4 4 C-3.34 4 -2.68 4 -2 4 C-1.34 2.68 -0.68 1.36 0 0 Z M-2 6 C-1 8 -1 8 -1 8 Z " fill="#010101" transform="translate(638,139)"/>
<path d="M0 0 C0.99 0.33 1.98 0.66 3 1 C4.1577506 4.47325181 4.06866652 7.36067448 4 11 C2.33333333 11 0.66666667 11 -1 11 C-1.02688151 9.35425434 -1.04634123 7.70838587 -1.0625 6.0625 C-1.07410156 5.14597656 -1.08570312 4.22945313 -1.09765625 3.28515625 C-1 1 -1 1 0 0 Z " fill="#020202" transform="translate(31,107)"/>
<path d="M0 0 C-0.66 1.32 -1.32 2.64 -2 4 C-2.721875 3.505 -3.44375 3.01 -4.1875 2.5 C-7.17466883 0.90684329 -8.68000099 0.55135149 -12 1 C-12.66 1.66 -13.32 2.32 -14 3 C-14 1.68 -14 0.36 -14 -1 C-14.66 -1.33 -15.32 -1.66 -16 -2 C-10.57373151 -3.80875616 -5.06935297 -2.37625921 0 0 Z " fill="#202020" transform="translate(401,137)"/>
<path d="M0 0 C8.16586606 0.34896864 8.16586606 0.34896864 11.5625 3 C13 5 13 5 13 6 C9.59922821 5.92981522 6.3221254 5.75964864 3 5 C0.875 2.4375 0.875 2.4375 0 0 Z " fill="#0B0B0B" transform="translate(62,143)"/>
<path d="M0 0 C0.99 0 1.98 0 3 0 C2.67 4.29 2.34 8.58 2 13 C1.01 12.67 0.02 12.34 -1 12 C-2.11658501 7.31034294 -1.80619523 4.46236469 0 0 Z " fill="#020202" transform="translate(384,136)"/>
<path d="M0 0 C2.3515625 0.19140625 2.3515625 0.19140625 5 1 C6.3984375 3.21484375 6.3984375 3.21484375 7.375 5.9375 C7.71273437 6.83339844 8.05046875 7.72929688 8.3984375 8.65234375 C9 11 9 11 8 13 C2.65326391 9.67635324 1.52450179 5.80054339 0 0 Z " fill="#232323" transform="translate(513,40)"/>
<path d="M0 0 C0.66 0 1.32 0 2 0 C3.32 4.29 4.64 8.58 6 13 C6.66 10.69 7.32 8.38 8 6 C8.66 6.33 9.32 6.66 10 7 C9.01 10.3 8.02 13.6 7 17 C6.01 16.67 5.02 16.34 4 16 C3.11917378 13.28681956 2.42123771 10.71116483 1.8125 7.9375 C1.63525391 7.17888672 1.45800781 6.42027344 1.27539062 5.63867188 C0.83863033 3.76178303 0.41780844 1.8811984 0 0 Z " fill="#464646" transform="translate(330,180)"/>
<path d="M0 0 C6.50313209 -0.46450943 10.4174808 0.67424388 16 4 C15.67 4.99 15.34 5.98 15 7 C15.66 7.33 16.32 7.66 17 8 C14.11915511 7.55679309 12.63788933 6.75054598 10.1875 5.0625 C6.69328941 2.80154021 4.00618387 1.96148413 0 1 C0 0.67 0 0.34 0 0 Z " fill="#131313" transform="translate(658,135)"/>
<path d="M0 0 C-0.15234375 1.828125 -0.15234375 1.828125 -1 4 C-3.50390625 5.484375 -3.50390625 5.484375 -6.5625 6.75 C-8.08037109 7.39195313 -8.08037109 7.39195313 -9.62890625 8.046875 C-10.41136719 8.36140625 -11.19382812 8.6759375 -12 9 C-12 8.34 -12 7.68 -12 7 C-12.66 6.67 -13.32 6.34 -14 6 C-12.04414675 4.99515796 -10.08523763 3.99626195 -8.125 3 C-6.48917969 2.1646875 -6.48917969 2.1646875 -4.8203125 1.3125 C-2 0 -2 0 0 0 Z " fill="#202020" transform="translate(114,27)"/>
<path d="M0 0 C0.66 0 1.32 0 2 0 C2 5.61 2 11.22 2 17 C-2 15 -2 15 -3.25 12.375 C-3.4975 11.59125 -3.745 10.8075 -4 10 C-2.515 10.99 -2.515 10.99 -1 12 C-0.67 8.04 -0.34 4.08 0 0 Z " fill="#515151" transform="translate(633,180)"/>
<path d="M0 0 C-0.99 1.485 -0.99 1.485 -2 3 C-5.0390625 3.51171875 -5.0390625 3.51171875 -8.625 3.6875 C-9.81351563 3.75324219 -11.00203125 3.81898438 -12.2265625 3.88671875 C-13.14179688 3.92410156 -14.05703125 3.96148437 -15 4 C-15 3.01 -15 2.02 -15 1 C-9.91913204 0.15318867 -5.15171623 -0.09038099 0 0 Z " fill="#020202" transform="translate(218,143)"/>
<path d="M0 0 C0 2.64 0 5.28 0 8 C-0.99 8 -1.98 8 -3 8 C-3.33 10.64 -3.66 13.28 -4 16 C-4.33 16 -4.66 16 -5 16 C-5.02703381 14.06257659 -5.04641125 12.12504521 -5.0625 10.1875 C-5.07410156 9.10855469 -5.08570312 8.02960938 -5.09765625 6.91796875 C-5 4 -5 4 -4 1 C-2 0 -2 0 0 0 Z " fill="#151515" transform="translate(34,100)"/>
<path d="M0 0 C1.65 0 3.3 0 5 0 C4.39009109 3.55780196 3.4216319 6.6828589 2 10 C0 7 0 7 0 5 C-0.66 5 -1.32 5 -2 5 C-1.34 3.35 -0.68 1.7 0 0 Z " fill="#292929" transform="translate(587,68)"/>
<path d="M0 0 C-0.66 3.3 -1.32 6.6 -2 10 C-3.32 9.01 -4.64 8.02 -6 7 C-6.66 7.99 -7.32 8.98 -8 10 C-7.8125 6.6875 -7.8125 6.6875 -7 3 C-4.58235424 1.07828158 -3.11532786 0 0 0 Z " fill="#131313" transform="translate(482,62)"/>
<path d="M0 0 C2.48794878 3.31726504 3.52821942 4.99613909 4.6875 8.75 C5.06455078 9.94882813 5.06455078 9.94882813 5.44921875 11.171875 C5.63097656 11.77515625 5.81273437 12.3784375 6 13 C5.34 13 4.68 13 4 13 C3.67 11.68 3.34 10.36 3 9 C2.34 9 1.68 9 1 9 C1 10.98 1 12.96 1 15 C0.67 15 0.34 15 0 15 C0 10.05 0 5.1 0 0 Z " fill="#E9E9E9" transform="translate(217,182)"/>
<path d="M0 0 C1.32 0.33 2.64 0.66 4 1 C3.67 1.66 3.34 2.32 3 3 C2.76970044 5.37123246 2.58880058 7.74741943 2.4375 10.125 C2.35371094 11.40632812 2.26992188 12.68765625 2.18359375 14.0078125 C2.12300781 14.99523437 2.06242188 15.98265625 2 17 C1.34 17 0.68 17 0 17 C0 11.39 0 5.78 0 0 Z " fill="#4A4A4A" transform="translate(620,180)"/>
<path d="M0 0 C0.28875 0.61875 0.5775 1.2375 0.875 1.875 C1.93720042 4.13325765 1.93720042 4.13325765 4 6 C5.93257855 6.36831081 5.93257855 6.36831081 8.1328125 6.4140625 C8.93847656 6.45273438 9.74414062 6.49140625 10.57421875 6.53125 C11.83685547 6.57765625 11.83685547 6.57765625 13.125 6.625 C13.97449219 6.66367188 14.82398438 6.70234375 15.69921875 6.7421875 C17.79911684 6.83656494 19.89952891 6.91937586 22 7 C22 7.33 22 7.66 22 8 C18.93781928 8.27646774 15.8783422 8.52190671 12.8125 8.75 C11.94818359 8.83121094 11.08386719 8.91242188 10.19335938 8.99609375 C3.69679834 9.44413244 3.69679834 9.44413244 -0.11328125 7.015625 C-0.73589844 6.35046875 -1.35851562 5.6853125 -2 5 C-1.34 5 -0.68 5 0 5 C0 3.35 0 1.7 0 0 Z " fill="#494949" transform="translate(488,139)"/>
<path d="M0 0 C0.33 0.99 0.66 1.98 1 3 C1.99 3.33 2.98 3.66 4 4 C3.01 6.64 2.02 9.28 1 12 C-1.12046792 8.46588679 -1.53199289 5.05606165 -2 1 C-1.34 0.67 -0.68 0.34 0 0 Z " fill="#F4F4F4" transform="translate(335,182)"/>
<path d="M0 0 C0.33 0 0.66 0 1 0 C1.13277344 0.67546875 1.26554688 1.3509375 1.40234375 2.046875 C1.57894531 2.93890625 1.75554688 3.8309375 1.9375 4.75 C2.19853516 6.07257813 2.19853516 6.07257813 2.46484375 7.421875 C2.92368488 9.63235053 3.43336074 11.81512068 4 14 C3.34 14 2.68 14 2 14 C2 13.34 2 12.68 2 12 C1.01 12.33 0.02 12.66 -1 13 C-2.125 10.6875 -2.125 10.6875 -3 8 C-2.34 7.01 -1.68 6.02 -1 5 C-0.61500109 3.34450469 -0.27206865 1.6777567 0 0 Z " fill="#E5E5E5" transform="translate(559,135)"/>
<path d="M0 0 C0 0.33 0 0.66 0 1 C-2.31 1.33 -4.62 1.66 -7 2 C-6.67 2.99 -6.34 3.98 -6 5 C-8.64 5 -11.28 5 -14 5 C-13.01 4.67 -12.02 4.34 -11 4 C-11 3.34 -11 2.68 -11 2 C-13.97 2 -16.94 2 -20 2 C-20 1.67 -20 1.34 -20 1 C-13.31184516 0.37577221 -6.71884955 -0.12920865 0 0 Z " fill="#404040" transform="translate(210,143)"/>
<path d="M0 0 C-0.66 0.66 -1.32 1.32 -2 2 C-2.99 2 -3.98 2 -5 2 C-5.33 3.65 -5.66 5.3 -6 7 C-6.33 6.34 -6.66 5.68 -7 5 C-8.65 5.33 -10.3 5.66 -12 6 C-9.51338724 -0.92699268 -6.80769872 -0.10980159 0 0 Z " fill="#1B1B1B" transform="translate(648,135)"/>
<path d="M0 0 C0.66 0 1.32 0 2 0 C3.25664978 2.90600261 4 4.79604584 4 8 C1.69 8 -0.62 8 -3 8 C-2.01 5.36 -1.02 2.72 0 0 Z " fill="#E3E3E3" transform="translate(510,182)"/>
<path d="M0 0 C0.66 0.33 1.32 0.66 2 1 C1.67 2.65 1.34 4.3 1 6 C1.66 6 2.32 6 3 6 C3 5.01 3 4.02 3 3 C3.66 3.33 4.32 3.66 5 4 C4.34 6.31 3.68 8.62 3 11 C0.525 10.01 0.525 10.01 -2 9 C-1.51421457 5.87709365 -1.0013988 3.00419641 0 0 Z " fill="#161616" transform="translate(242,100)"/>
<path d="M0 0 C0.99 0 1.98 0 3 0 C3.33 2.31 3.66 4.62 4 7 C2.35 7.66 0.7 8.32 -1 9 C-0.67 6.03 -0.34 3.06 0 0 Z " fill="#0D0D0D" transform="translate(584,73)"/>
<path d="M0 0 C2.25 -0.375 2.25 -0.375 5 0 C7.3125 3 7.3125 3 9 6 C2.25 5.25 2.25 5.25 0 3 C0 2.01 0 1.02 0 0 Z M9 4 C11 5 11 5 11 5 Z " fill="#090909" transform="translate(199,18)"/>
<path d="M0 0 C5.02254631 -0.2954439 7.89542386 0.01485372 12 3 C11.34 4.32 10.68 5.64 10 7 C8.33073546 6.02526874 6.66464358 5.04510211 5 4.0625 C4.071875 3.51722656 3.14375 2.97195312 2.1875 2.41015625 C1.465625 1.94480469 0.74375 1.47945312 0 1 C0 0.67 0 0.34 0 0 Z " fill="#272727" transform="translate(617,133)"/>
<path d="M0 0 C0.99 0.33 1.98 0.66 3 1 C-3.20440882 7.37675351 -3.20440882 7.37675351 -6 9 C-8.12109375 8.5703125 -8.12109375 8.5703125 -10 8 C-8.40629329 6.63353852 -6.79967018 5.28212834 -5.1875 3.9375 C-4.29417969 3.18339844 -3.40085937 2.42929687 -2.48046875 1.65234375 C-1.25263672 0.83443359 -1.25263672 0.83443359 0 0 Z " fill="#1E1E1E" transform="translate(69,53)"/>
<path d="M0 0 C2.15377564 2.62198774 3.40072174 4.64404172 4 8 C1.69 8 -0.62 8 -3 8 C-1.125 1.125 -1.125 1.125 0 0 Z " fill="#EAEAEA" transform="translate(368,182)"/>
<path d="M0 0 C5.71241466 0.38728235 8.73688282 0.87010523 13 5 C11.02 5.99 11.02 5.99 9 7 C8.2575 6.401875 7.515 5.80375 6.75 5.1875 C4.52582236 3.41826778 2.28337765 1.69139085 0 0 Z " fill="#171717" transform="translate(365,135)"/>
<path d="M0 0 C0.33 0.66 0.66 1.32 1 2 C1.66 2 2.32 2 3 2 C1.78896139 5.63311582 0.72226766 8.27773234 -2 11 C-3.35384615 4.6 -3.35384615 4.6 -1.5625 1.5625 C-1.046875 1.046875 -0.53125 0.53125 0 0 Z " fill="#F6F6F6" transform="translate(260,182)"/>
<path d="M0 0 C3.3 0 6.6 0 10 0 C10 0.99 10 1.98 10 3 C6.7 3 3.4 3 0 3 C0 2.01 0 1.02 0 0 Z " fill="#000000" transform="translate(534,146)"/>
<path d="M0 0 C2.375 1.75 2.375 1.75 3.375 4.75 C1.125 5.0625 1.125 5.0625 -1.625 4.75 C-3.9375 2.25 -3.9375 2.25 -5.625 -0.25 C-2.625 -1.25 -2.625 -1.25 0 0 Z " fill="#212121" transform="translate(411.625,145.25)"/>
<path d="M0 0 C0.639375 0.2475 1.27875 0.495 1.9375 0.75 C2.2675 1.74 2.5975 2.73 2.9375 3.75 C-0.6925 4.08 -4.3225 4.41 -8.0625 4.75 C-3.10187008 -0.37598425 -3.10187008 -0.37598425 0 0 Z " fill="#151515" transform="translate(555.0625,144.25)"/>
<path d="M0 0 C0.99 1.32 1.98 2.64 3 4 C2.01 4.33 1.02 4.66 0 5 C-0.33 5.99 -0.66 6.98 -1 8 C-2.65 7.01 -4.3 6.02 -6 5 C-5.195625 4.360625 -4.39125 3.72125 -3.5625 3.0625 C-1.7249496 1.59396498 -1.7249496 1.59396498 0 0 Z " fill="#0E0E0E" transform="translate(354,141)"/>
<path d="M0 0 C1.2065625 0.0309375 1.2065625 0.0309375 2.4375 0.0625 C2.4375 0.7225 2.4375 1.3825 2.4375 2.0625 C1.4475 2.0625 0.4575 2.0625 -0.5625 2.0625 C-1.2225 3.3825 -1.8825 4.7025 -2.5625 6.0625 C-4.2125 6.0625 -5.8625 6.0625 -7.5625 6.0625 C-6.9025 5.7325 -6.2425 5.4025 -5.5625 5.0625 C-4.86312468 3.74602881 -4.19520867 2.41227849 -3.5625 1.0625 C-2.5625 0.0625 -2.5625 0.0625 0 0 Z " fill="#1B1B1B" transform="translate(470.5625,213.9375)"/>
<path d="M0 0 C2.97 0 5.94 0 9 0 C9 0.99 9 1.98 9 3 C5.7 3 2.4 3 -1 3 C-0.67 2.01 -0.34 1.02 0 0 Z " fill="#0C0C0C" transform="translate(143,149)"/>
<path d="M0 0 C0.99 1.32 1.98 2.64 3 4 C2.01 4.495 2.01 4.495 1 5 C0.01 6.485 0.01 6.485 -1 8 C-2.65 6.35 -4.3 4.7 -6 3 C-4.02 2.01 -2.04 1.02 0 0 Z " fill="#EEEEEE" transform="translate(415,140)"/>
<path d="M0 0 C1.79133978 -0.05391993 3.58313899 -0.09275571 5.375 -0.125 C6.37273437 -0.14820313 7.37046875 -0.17140625 8.3984375 -0.1953125 C11 0 11 0 13 2 C8.71 2.66 4.42 3.32 0 4 C0 2.68 0 1.36 0 0 Z " fill="#070707" transform="translate(337,130)"/>
<path d="M0 0 C0.66 0 1.32 0 2 0 C1.5206753 4.31392226 0.2542015 6.16569547 -3 9 C-3 8.34 -3 7.68 -3 7 C-3.66 6.67 -4.32 6.34 -5 6 C-3.38405168 3.95880212 -1.7143618 1.95927063 0 0 Z " fill="#1E1E1E" transform="translate(47,73)"/>
<path d="M0 0 C4.83256305 0.41421969 6.82679218 2.46413986 10 6 C8.68 6 7.36 6 6 6 C5.67 5.34 5.34 4.68 5 4 C2.83125748 4.50603992 1.00032373 4.99983813 -1 6 C-0.67 4.02 -0.34 2.04 0 0 Z " fill="#1E1E1E" transform="translate(499,17)"/>
<path d="M0 0 C4.95 0 9.9 0 15 0 C15 0.66 15 1.32 15 2 C8.375 3.125 8.375 3.125 5 2 C3.33637583 1.65179959 1.67004829 1.31595508 0 1 C0 0.67 0 0.34 0 0 Z " fill="#0F0F0F" transform="translate(184,145)"/>
<path d="M0 0 C0.99 0.66 1.98 1.32 3 2 C2.67 3.98 2.34 5.96 2 8 C0.68 7.67 -0.64 7.34 -2 7 C-1.125 1.125 -1.125 1.125 0 0 Z " fill="#000000" transform="translate(476,68)"/>
<path d="M0 0 C0 0.66 0 1.32 0 2 C-3.3 3.32 -6.6 4.64 -10 6 C-9.67 4.68 -9.34 3.36 -9 2 C-5.70173093 0.21715186 -3.8225249 0 0 0 Z " fill="#0F0F0F" transform="translate(124,24)"/>
<path d="M0 0 C1.7074998 1.28062485 3.37373596 2.61767557 5 4 C5 4.66 5 5.32 5 6 C2.69 5.67 0.38 5.34 -2 5 C-2 3.68 -2 2.36 -2 1 C-1.34 0.67 -0.68 0.34 0 0 Z " fill="#F1F1F1" transform="translate(262,190)"/>
<path d="M0 0 C0.99 0.33 1.98 0.66 3 1 C2.34 3.31 1.68 5.62 1 8 C0.34 8 -0.32 8 -1 8 C-1.66 6.02 -2.32 4.04 -3 2 C-2.01 1.34 -1.02 0.68 0 0 Z " fill="#ECECEC" transform="translate(225,186)"/>
<path d="M0 0 C0 0.66 0 1.32 0 2 C-0.99 1.938125 -1.98 1.87625 -3 1.8125 C-7.46888211 1.78508355 -10.91304608 3.2791773 -15 5 C-15.66 4.34 -16.32 3.68 -17 3 C-11.06108578 0.4084738 -6.45892714 -0.40368295 0 0 Z " fill="#1D1D1D" transform="translate(259,140)"/>
<path d="M0 0 C1.32 0.33 2.64 0.66 4 1 C4 2.98 4 4.96 4 7 C3.67 6.34 3.34 5.68 3 5 C2.01 5.33 1.02 5.66 0 6 C-0.33 7.98 -0.66 9.96 -1 12 C-1.33 12 -1.66 12 -2 12 C-2.28571429 3.42857143 -2.28571429 3.42857143 0 0 Z " fill="#161616" transform="translate(467,115)"/>
<path d="M0 0 C0 0.33 0 0.66 0 1 C-2.31 1.33 -4.62 1.66 -7 2 C-6.34 2.66 -5.68 3.32 -5 4 C-6.98 4 -8.96 4 -11 4 C-11 3.34 -11 2.68 -11 2 C-12.65 2 -14.3 2 -16 2 C-16 1.67 -16 1.34 -16 1 C-10.59255982 0.22750855 -5.46137814 -0.09752461 0 0 Z " fill="#262626" transform="translate(181,146)"/>
<path d="M0 0 C2.0625 0.4375 2.0625 0.4375 4 1 C4 1.66 4 2.32 4 3 C3.34 3 2.68 3 2 3 C2.33 4.32 2.66 5.64 3 7 C1.68 7 0.36 7 -1 7 C-1.04254356 5.00045254 -1.04080783 2.99958364 -1 1 C-0.67 0.67 -0.34 0.34 0 0 Z " fill="#000000" transform="translate(464,144)"/>
<path d="M0 0 C1.98 0.66 3.96 1.32 6 2 C5.34 2.66 4.68 3.32 4 4 C4.66 4.66 5.32 5.32 6 6 C5.01 6.33 4.02 6.66 3 7 C2.01 6.34 1.02 5.68 0 5 C-0.1875 2.375 -0.1875 2.375 0 0 Z " fill="#1B1B1B" transform="translate(59,140)"/>
<path d="M0 0 C1.98 0 3.96 0 6 0 C6.33 1.65 6.66 3.3 7 5 C4.03 4.505 4.03 4.505 1 4 C0.67 2.68 0.34 1.36 0 0 Z " fill="#080808" transform="translate(53,140)"/>
<path d="M0 0 C0.80050781 0.03480469 1.60101563 0.06960937 2.42578125 0.10546875 C3.63814453 0.14607422 3.63814453 0.14607422 4.875 0.1875 C5.48988281 0.22230469 6.10476563 0.25710937 6.73828125 0.29296875 C7.06828125 0.95296875 7.39828125 1.61296875 7.73828125 2.29296875 C1.30328125 2.78796875 1.30328125 2.78796875 -5.26171875 3.29296875 C-2.26171875 0.29296875 -2.26171875 0.29296875 0 0 Z " fill="#080808" transform="translate(431.26171875,129.70703125)"/>
<path d="M0 0 C0 0.33 0 0.66 0 1 C-5.32932432 2.70084819 -10.43109483 3.52013969 -16 4 C-11.62264316 -0.80221795 -6.18911379 -0.12378228 0 0 Z " fill="#383838" transform="translate(435,129)"/>
<path d="M0 0 C0.33 0.99 0.66 1.98 1 3 C-3.75 6 -3.75 6 -6 6 C-5.625 3.5625 -5.625 3.5625 -5 1 C-3 0 -3 0 0 0 Z " fill="#F0F0F0" transform="translate(125,26)"/>
<path d="M0 0 C1.2065625 0.0309375 1.2065625 0.0309375 2.4375 0.0625 C-0.0375 3.5275 -0.0375 3.5275 -2.5625 7.0625 C-3.2225 6.7325 -3.8825 6.4025 -4.5625 6.0625 C-3.48963568 0.08511307 -3.48963568 0.08511307 0 0 Z " fill="#E0E0E0" transform="translate(662.5625,136.9375)"/>
<path d="M0 0 C1.37562854 1.28965176 2.70766393 2.62689293 4 4 C4 4.66 4 5.32 4 6 C1.69 6 -0.62 6 -3 6 C-3 5.34 -3 4.68 -3 4 C-2.34 4 -1.68 4 -1 4 C-0.67 2.68 -0.34 1.36 0 0 Z " fill="#F1F1F1" transform="translate(628,141)"/>
<path d="M0 0 C0.33 0 0.66 0 1 0 C1.33 3.3 1.66 6.6 2 10 C1.34 10 0.68 10 0 10 C-0.33 11.65 -0.66 13.3 -1 15 C-2.20220203 11.46905698 -1.79532349 8.87101018 -1.0625 5.25 C-0.86785156 4.26515625 -0.67320312 3.2803125 -0.47265625 2.265625 C-0.31667969 1.51796875 -0.16070313 0.7703125 0 0 Z " fill="#DADADA" transform="translate(572,133)"/>
<path d="M0 0 C0.99 0.66 1.98 1.32 3 2 C2.67 2.66 2.34 3.32 2 4 C2.66 4.33 3.32 4.66 4 5 C-0.29 4.67 -4.58 4.34 -9 4 C-9 3.67 -9 3.34 -9 3 C-6.36 3 -3.72 3 -1 3 C-0.67 2.01 -0.34 1.02 0 0 Z " fill="#D2D2D2" transform="translate(264,136)"/>
<path d="M0 0 C0.33 0.99 0.66 1.98 1 3 C1.66 3 2.32 3 3 3 C3 4.65 3 6.3 3 8 C1.68 8.33 0.36 8.66 -1 9 C-0.67 6.03 -0.34 3.06 0 0 Z " fill="#E0E0E0" transform="translate(475,91)"/>
<path d="M0 0 C0.66 0.33 1.32 0.66 2 1 C1.01 4.3 0.02 7.6 -1 11 C-1.99 10.67 -2.98 10.34 -4 10 C-4 9.34 -4 8.68 -4 8 C-3.34 7.67 -2.68 7.34 -2 7 C-1.26924352 4.6859378 -0.59861742 2.35171131 0 0 Z " fill="#4C4C4C" transform="translate(338,186)"/>
<path d="M0 0 C1.7074998 1.28062485 3.37373596 2.61767557 5 4 C5 4.66 5 5.32 5 6 C3.02 6.33 1.04 6.66 -1 7 C-0.67 4.69 -0.34 2.38 0 0 Z " fill="#EEEEEE" transform="translate(649,140)"/>
<path d="M0 0 C0.66 0 1.32 0 2 0 C1.67 2.31 1.34 4.62 1 7 C0.34 7 -0.32 7 -1 7 C-1 6.34 -1 5.68 -1 5 C-1.66 5 -2.32 5 -3 5 C-2.67 4.01 -2.34 3.02 -2 2 C-1.34 2 -0.68 2 0 2 C0 1.34 0 0.68 0 0 Z " fill="#040404" transform="translate(240,116)"/>
<path d="M0 0 C0.99 0 1.98 0 3 0 C2.34 2.64 1.68 5.28 1 8 C0.01 7.01 -0.98 6.02 -2 5 C-1.34 3.35 -0.68 1.7 0 0 Z " fill="#070707" transform="translate(496,17)"/>
<path d="M0 0 C0.99 1.32 1.98 2.64 3 4 C2.34 4 1.68 4 1 4 C1 4.66 1 5.32 1 6 C-0.98 6.99 -0.98 6.99 -3 8 C-3 6.68 -3 5.36 -3 4 C-2.34 3.67 -1.68 3.34 -1 3 C-0.67 2.01 -0.34 1.02 0 0 Z " fill="#F5F5F5" transform="translate(476,192)"/>
<path d="M0 0 C2.31 0 4.62 0 7 0 C6.67 0.99 6.34 1.98 6 3 C4.02 3 2.04 3 0 3 C0 2.01 0 1.02 0 0 Z " fill="#000000" transform="translate(92,149)"/>
<path d="M0 0 C1.98 0.495 1.98 0.495 4 1 C3.67 2.98 3.34 4.96 3 7 C1.68 6.01 0.36 5.02 -1 4 C-0.67 2.68 -0.34 1.36 0 0 Z " fill="#F5F5F5" transform="translate(633,135)"/>
<path d="M0 0 C3.77545388 1.09068668 6.47043472 1.9083091 9 5 C8.34 5 7.68 5 7 5 C6.67 5.99 6.34 6.98 6 8 C5.6596875 7.071875 5.6596875 7.071875 5.3125 6.125 C3.62070165 3.38589791 2.00755839 2.94975528 -1 2 C-0.67 1.34 -0.34 0.68 0 0 Z " fill="#1E1E1E" transform="translate(439,131)"/>
<path d="M0 0 C-1.485 2.475 -1.485 2.475 -3 5 C-4.32 3.35 -5.64 1.7 -7 0 C-4.3333581 -1.33332095 -2.83319697 -0.67102033 0 0 Z " fill="#1E1E1E" transform="translate(338,131)"/>
<path d="M0 0 C1.65 1.65 3.3 3.3 5 5 C2 7 2 7 -2 7 C-2 6.01 -2 5.02 -2 4 C-1.34 4 -0.68 4 0 4 C0 2.68 0 1.36 0 0 Z " fill="#181818" transform="translate(38,123)"/>
<path d="M0 0 C0.99 0.33 1.98 0.66 3 1 C3 2.32 3 3.64 3 5 C2.34 5 1.68 5 1 5 C1 5.99 1 6.98 1 8 C0.34 8 -0.32 8 -1 8 C-1.04241723 5.66705225 -1.04092937 3.33297433 -1 1 C-0.67 0.67 -0.34 0.34 0 0 Z " fill="#010101" transform="translate(244,98)"/>
<path d="M0 0 C2 4 2 4 1.625 6.25 C1.41875 6.8275 1.2125 7.405 1 8 C-0.32 8.33 -1.64 8.66 -3 9 C-2.01 6.03 -1.02 3.06 0 0 Z " fill="#EEEEEE" transform="translate(590,73)"/>
<path d="M0 0 C0.33 1.32 0.66 2.64 1 4 C-0.65 5.32 -2.3 6.64 -4 8 C-4.33 7.01 -4.66 6.02 -5 5 C-3.35 3.35 -1.7 1.7 0 0 Z " fill="#0D0D0D" transform="translate(53,67)"/>
<path d="M0 0 C2.31 0.66 4.62 1.32 7 2 C6.34 2.66 5.68 3.32 5 4 C2.9375 3.8125 2.9375 3.8125 1 3 C0.67 2.01 0.34 1.02 0 0 Z M3 4 C3.66 4.33 4.32 4.66 5 5 C4.34 5.66 3.68 6.32 3 7 C2.34 6.34 1.68 5.68 1 5 C1.66 4.67 2.32 4.34 3 4 Z " fill="#191919" transform="translate(205,19)"/>
<path d="M0 0 C2.02054804 1.64169528 4.02043058 3.30911778 6 5 C6 5.33 6 5.66 6 6 C4.02 6 2.04 6 0 6 C-0.33 5.34 -0.66 4.68 -1 4 C-0.34 4 0.32 4 1 4 C0.67 2.68 0.34 1.36 0 0 Z " fill="#0C0C0C" transform="translate(658,143)"/>
<path d="M0 0 C0.33 0.66 0.66 1.32 1 2 C-1.31 2.66 -3.62 3.32 -6 4 C-5.67 4.99 -5.34 5.98 -5 7 C-5.66 7.66 -6.32 8.32 -7 9 C-7.625 7.1875 -7.625 7.1875 -8 5 C-5.59563974 1.39345961 -4.05320393 1.14547068 0 0 Z " fill="#DBDBDB" transform="translate(539,131)"/>
<path d="M0 0 C0.99 0 1.98 0 3 0 C3.33 1.98 3.66 3.96 4 6 C3.01 6 2.02 6 1 6 C-0.0625 4.125 -0.0625 4.125 -1 2 C-0.67 1.34 -0.34 0.68 0 0 Z " fill="#020202" transform="translate(46,134)"/>
<path d="M0 0 C1.65 0.33 3.3 0.66 5 1 C4.67 2.32 4.34 3.64 4 5 C2.68 5.33 1.36 5.66 0 6 C-1.125 2.25 -1.125 2.25 0 0 Z " fill="#F8F8F8" transform="translate(235,107)"/>
<path d="M0 0 C0 0.99 0 1.98 0 3 C-4.22222222 6 -4.22222222 6 -7 6 C-5.52522876 2.59668175 -4.14385429 0 0 0 Z " fill="#121212" transform="translate(78,48)"/>
<path d="M0 0 C1.65 0 3.3 0 5 0 C4.67 1.65 4.34 3.3 4 5 C2.68 5 1.36 5 0 5 C0 3.35 0 1.7 0 0 Z " fill="#FEFEFE" transform="translate(184,182)"/>
<path d="M0 0 C1.32 0.33 2.64 0.66 4 1 C4 2.65 4 4.3 4 6 C2.68 5.34 1.36 4.68 0 4 C0 2.68 0 1.36 0 0 Z " fill="#010101" transform="translate(484,138)"/>
<path d="M0 0 C-0.33 1.98 -0.66 3.96 -1 6 C-1.99 5.34 -2.98 4.68 -4 4 C-4.66 3.67 -5.32 3.34 -6 3 C-3.375 0 -3.375 0 0 0 Z " fill="#0D0D0D" transform="translate(566,130)"/>
<path d="M0 0 C1.32 0.33 2.64 0.66 4 1 C3.39816251 3.02045442 2.72693904 5.02111039 2 7 C1.01 7.495 1.01 7.495 0 8 C0 5.36 0 2.72 0 0 Z " fill="#E6E6E6" transform="translate(472,108)"/>
<path d="M0 0 C0.66 0 1.32 0 2 0 C0.375 6.75 0.375 6.75 -3 9 C-2.01 6.03 -1.02 3.06 0 0 Z " fill="#E8E8E8" transform="translate(39,90)"/>
<path d="M0 0 C0.66 0.33 1.32 0.66 2 1 C1.34 2.65 0.68 4.3 0 6 C-1.32 5.67 -2.64 5.34 -4 5 C-3.34 4.01 -2.68 3.02 -2 2 C-1.34 2 -0.68 2 0 2 C0 1.34 0 0.68 0 0 Z " fill="#020202" transform="translate(444,142)"/>
<path d="M0 0 C-2.31 1.32 -4.62 2.64 -7 4 C-7 3.34 -7 2.68 -7 2 C-7.66 1.67 -8.32 1.34 -9 1 C-5.57367167 -0.61798838 -3.61944899 -1.34053666 0 0 Z " fill="#272727" transform="translate(309,139)"/>
<path d="M0 0 C0.99 0.33 1.98 0.66 3 1 C3 1.99 3 2.98 3 4 C1.68 4 0.36 4 -1 4 C-0.67 2.68 -0.34 1.36 0 0 Z M-4 4 C-3.01 4.495 -3.01 4.495 -2 5 C-2 5.66 -2 6.32 -2 7 C-2.66 7 -3.32 7 -4 7 C-4 6.01 -4 5.02 -4 4 Z " fill="#000000" transform="translate(331,132)"/>
<path d="M0 0 C2.3125 0.1875 2.3125 0.1875 4 1 C0.375 4 0.375 4 -3 4 C-3 4.66 -3 5.32 -3 6 C-3.66 5.67 -4.32 5.34 -5 5 C-2.75 2.4375 -2.75 2.4375 0 0 Z " fill="#DDDDDD" transform="translate(501,20)"/>
<path d="M0 0 C0.33 0 0.66 0 1 0 C1.20140476 3.62528568 0.85776765 5.86501708 -1 9 C-2.32 8.34 -3.64 7.68 -5 7 C-4.360625 6.5875 -3.72125 6.175 -3.0625 5.75 C-0.79009069 3.82189513 -0.39803561 2.88575819 0 0 Z " fill="#DBDBDB" transform="translate(294,184)"/>
<path d="M0 0 C0.99 0.33 1.98 0.66 3 1 C3 2.32 3 3.64 3 5 C2.01 5.33 1.02 5.66 0 6 C-0.38218767 4.34385343 -0.71395102 2.67542976 -1 1 C-0.67 0.67 -0.34 0.34 0 0 Z " fill="#F5F5F5" transform="translate(220,179)"/>
<path d="M0 0 C2.31 0 4.62 0 7 0 C6.34 0.474375 5.68 0.94875 5 1.4375 C4.01 2.2109375 4.01 2.2109375 3 3 C3 3.33 3 3.66 3 4 C1.02 4 -0.96 4 -3 4 C-2.01 3.34 -1.02 2.68 0 2 C0 1.34 0 0.68 0 0 Z " fill="#202020" transform="translate(89,148)"/>
<path d="M0 0 C1.9375 0.3125 1.9375 0.3125 4 1 C4.33 1.99 4.66 2.98 5 4 C3.35 4 1.7 4 0 4 C0 2.68 0 1.36 0 0 Z " fill="#202020" transform="translate(679,146)"/>
<path d="M0 0 C0.99 0.33 1.98 0.66 3 1 C3 3.64 3 6.28 3 9 C2.67 9 2.34 9 2 9 C0 3.375 0 3.375 0 0 Z " fill="#090909" transform="translate(638,139)"/>
<path d="M0 0 C1.65 0 3.3 0 5 0 C4.67 0.99 4.34 1.98 4 3 C0.9375 4.1875 0.9375 4.1875 -2 5 C-1.34 3.35 -0.68 1.7 0 0 Z " fill="#EEEEEE" transform="translate(389,137)"/>
<path d="M0 0 C1.258125 -0.04125 2.51625 -0.0825 3.8125 -0.125 C4.52019531 -0.14820313 5.22789062 -0.17140625 5.95703125 -0.1953125 C8 0 8 0 11 2 C6.99799622 3.60080151 3.95443764 2.29279692 0 1 C0 0.67 0 0.34 0 0 Z " fill="#424242" transform="translate(658,135)"/>
<path d="M0 0 C0.66 0.33 1.32 0.66 2 1 C0.62845496 3.95409701 -0.98863724 6.44008376 -3 9 C-3.36923077 3.46153846 -3.36923077 3.46153846 -1.5 1.125 C-1.005 0.75375 -0.51 0.3825 0 0 Z " fill="#1F1F1F" transform="translate(329,132)"/>
<path d="M0 0 C1.32 0.99 2.64 1.98 4 3 C3.67 3.99 3.34 4.98 3 6 C2.01 6 1.02 6 0 6 C0 4.02 0 2.04 0 0 Z M4 0 C4.66 0.66 5.32 1.32 6 2 C5.01 2.495 5.01 2.495 4 3 C4 2.01 4 1.02 4 0 Z " fill="#ECECEC" transform="translate(240,125)"/>
<path d="M0 0 C0.33 0.99 0.66 1.98 1 3 C0.34 2.67 -0.32 2.34 -1 2 C-0.67 1.34 -0.34 0.68 0 0 Z M-3 1 C-2.34 1.99 -1.68 2.98 -1 4 C-1.99 4.99 -2.98 5.98 -4 7 C-4.33 5.35 -4.66 3.7 -5 2 C-4.34 1.67 -3.68 1.34 -3 1 Z " fill="#131313" transform="translate(35,116)"/>
<path d="M0 0 C0.66 0 1.32 0 2 0 C3.42944945 2.35438733 4.08661261 3.48032433 3.625 6.25 C3.41875 6.8275 3.2125 7.405 3 8 C3 7.01 3 6.02 3 5 C1.68 5 0.36 5 -1 5 C-0.67 3.35 -0.34 1.7 0 0 Z " fill="#1B1B1B" transform="translate(244,94)"/>
<path d="M0 0 C0.33 1.32 0.66 2.64 1 4 C0.34 4 -0.32 4 -1 4 C-1.33 4.66 -1.66 5.32 -2 6 C-2.66 6 -3.32 6 -4 6 C-4 4.35 -4 2.7 -4 1 C-2.68 1.33 -1.36 1.66 0 2 C0 1.34 0 0.68 0 0 Z " fill="#010101" transform="translate(483,51)"/>
</svg>
